<svg width="55" height="71" viewBox="0 0 55 71" fill="none" xmlns="http://www.w3.org/2000/svg">
<g clip-path="url(#clip0_346_430)">
<path d="M52.9801 43.1484C52.9896 43.6271 52.6672 44.0347 52.2242 44.1428C51.6525 44.3343 51.0253 44.6201 50.4292 44.6352C49.9659 44.6447 49.5704 44.3315 49.4511 43.9021L48.4717 41.0914C48.3146 40.6387 48.1601 40.1955 48.0084 39.7428L46.1457 43.2975C45.9412 43.6832 45.1527 44.1113 44.8236 44.3329C44.3657 44.6393 43.7493 44.5148 43.4459 44.0539C43.3686 43.9362 43.3185 43.809 43.2968 43.6805L42.1968 38.1357L40.6891 37.1031L37.1886 36.5505C37.3119 36.7379 37.4378 36.9253 37.5611 37.1086C38.2032 38.0632 38.802 38.955 39.0147 39.8823C39.3561 41.3731 38.8277 42.6369 36.3771 43.5847C36.4503 43.6271 36.5221 43.6723 36.5912 43.7242C37.5692 44.4464 37.8239 45.5378 35.7851 48.3513C35.269 49.0611 34.826 49.6875 34.4548 50.2332C34.1636 50.6627 33.8913 51.0744 33.642 51.471L34.1866 54.9286C34.2598 55.395 34.1582 55.8505 33.8696 56.295C33.4104 56.9953 32.7425 57.2702 32.1763 57.8323C32.0991 57.9103 32.0273 57.9882 31.9636 58.0634L32.2007 59.0496C32.2901 59.4175 32.1641 59.7868 31.9067 60.0248C31.7414 60.1752 31.4949 60.2696 31.2944 60.3626C31.2293 60.6484 31.1305 60.9288 31.0031 61.2065C30.5683 62.1488 29.746 63.0967 28.8167 63.5589C27.783 64.0746 26.6004 63.9665 25.4679 63.9911C24.9193 64.0021 24.4641 63.5631 24.4532 63.0091C24.4438 62.555 24.3787 62.0763 24.2595 61.5675C23.9764 60.353 23.4101 59.2629 23.0864 58.0525C22.8005 56.9843 22.642 55.5386 23.2693 54.5662C23.3614 54.4294 23.3654 53.7059 23.3627 53.5349C23.3478 52.8962 23.0633 52.2588 22.7436 51.7199C22.4537 51.233 21.8685 50.2838 21.8577 49.7244C21.8225 48.0859 21.2589 47.7385 20.4867 47.7549C19.3027 47.7795 18.116 48.1406 16.8928 48.1666C16.3712 48.1776 15.8524 47.9478 15.3403 47.4814C14.5695 46.7784 13.8014 45.4831 13.3029 44.5462C12.864 43.7243 12.8978 43.5423 12.8789 42.6342C12.7935 39.8509 12.7149 37.2194 15.3335 35.2225C16.4024 33.6168 17.3737 32.5691 18.555 31.8907C19.7837 31.1822 21.1627 30.9155 23.0335 30.8759C23.5822 30.8636 24.036 31.304 24.0482 31.8579L24.078 33.2803L25.2809 33.7809L25.2972 33.6988C25.5153 32.5418 26.7521 32.9193 27.4755 33.1682C28.3466 33.465 28.8275 33.9697 29.8638 33.7426C30.2567 33.6551 30.17 33.547 30.2106 33.1436L29.0321 33.2762C28.7354 33.3077 28.455 33.2037 28.2518 33.0136C28.0757 32.8481 28.0066 32.6402 27.8711 32.446C27.4268 31.8087 26.6736 31.4407 25.7578 30.9935C24.6348 30.445 23.314 29.7995 21.8793 28.4769C17.1651 30.2795 15.6532 30.5463 15.2495 29.4835C15.0125 28.8626 15.3241 28.3538 15.7427 27.6686C16.1193 27.0504 16.6571 26.1723 16.6394 25.3585C16.635 25.151 16.6944 24.9473 16.8094 24.7754C16.9244 24.6034 17.0893 24.4717 17.2816 24.3983L21.2399 22.4685C20.2971 22.4685 19.934 20.8245 19.7837 20.1543C19.5723 19.2133 20.7346 18.7962 21.3524 18.3557C21.7723 18.0548 22.2749 17.6691 22.8588 17.1987L22.8954 17.1686C19.2431 17.8237 15.7846 19.3186 12.7515 21.4687C7.35989 25.2915 3.5397 31.3231 2.3828 37.8759C2.08612 39.5554 1.95607 41.287 1.99401 43.0691C2.03058 44.8499 2.23378 46.5732 2.59955 48.2391C2.61987 48.3294 2.64019 48.4196 2.66186 48.5099L7.30435 50.6312C7.73378 50.8268 7.88415 51.2043 7.89228 51.6379C7.93563 52.8866 7.61864 53.8372 7.29351 54.8124C7.04154 55.566 6.78415 56.3374 6.75841 57.2387C6.75706 57.3344 6.74216 57.4261 6.71506 57.5123C8.56691 60.1506 10.9471 62.4443 13.6443 64.1881C16.4525 66.0044 19.6116 67.2915 22.8967 67.8823C26.2401 68.4841 29.8476 68.4062 33.1625 67.6621C36.4205 66.9318 39.5227 65.5107 42.2524 63.5754C44.9048 61.6947 47.2092 59.2684 48.958 56.5124C50.7557 53.6813 52.0332 50.4835 52.617 47.1709C52.911 45.4982 53.041 43.7749 53.0045 42.0023C52.9869 42.3784 52.972 42.7696 52.9801 43.1484ZM40.2 7.09392C43.114 7.09392 45.4738 9.47786 45.4738 12.4198C45.4738 15.3604 43.114 17.743 40.2 17.743C37.2875 17.743 34.9263 15.3604 34.9263 12.4198C34.9263 9.47786 37.2875 7.09392 40.2 7.09392ZM46.2975 27.1119C44.9631 28.5877 43.4052 29.9171 41.6509 31.0099C41.3386 31.2428 40.9639 31.375 40.5759 31.3892C40.1879 31.4033 39.8048 31.2988 39.4766 31.0892C36.8757 29.4192 34.6851 27.4005 32.9593 25.2121C30.5615 22.1758 29.0483 18.7879 28.5254 15.5136C27.9795 12.1039 28.5024 8.80631 30.2025 6.10369C30.8798 5.02866 31.7455 4.04937 32.8021 3.19865C35.1864 1.28111 37.935 0.268991 40.6796 0.290875C43.351 0.312758 45.9845 1.30983 48.2468 3.39287C49.0393 4.1246 49.714 4.96438 50.2653 5.88349C52.0806 8.90615 52.487 12.7262 51.7026 16.5627C50.944 20.2774 49.0691 24.0441 46.2975 27.1119ZM40.5075 29.4507C49.7478 23.7938 53.3133 10.6856 46.9531 4.82761C43.076 1.25512 37.996 1.49994 33.997 4.71682C26.9865 10.3559 30.1293 22.794 40.5075 29.4507ZM50.0946 26.6565C52.0995 29.5861 53.5721 32.896 54.3402 36.3727C54.7344 38.1686 54.9525 40.0232 54.9931 41.9339C55.0338 43.846 54.8929 45.7088 54.5732 47.5197C53.9419 51.0976 52.5669 54.5334 50.627 57.5902C48.7359 60.5705 46.2582 63.1801 43.389 65.2139C40.4479 67.2997 37.1019 68.8329 33.5906 69.6221C30.0183 70.4235 26.1534 70.507 22.5499 69.8587C19.0047 69.22 15.6031 67.8331 12.5754 65.8731C9.62221 63.9624 7.03883 61.4636 5.02442 58.5654C2.95989 55.5961 1.43859 52.2178 0.659646 48.6727C0.264079 46.8768 0.0459759 45.0222 0.00669021 43.1101C-0.0339502 41.1981 0.105582 39.3352 0.426641 37.5244C1.6743 30.4546 5.78982 23.9566 11.6095 19.8315C15.8239 16.8444 20.5951 15.1348 25.7483 14.8133C25.7741 15.0212 25.8039 15.2305 25.8377 15.4384C25.9502 16.1455 26.1019 16.8581 26.2888 17.5707C25.8608 17.5789 25.8418 17.5802 25.4394 17.8087C25.0805 18.0124 24.6307 18.3311 24.0915 18.7661C23.5131 19.2297 22.9807 19.6373 22.493 19.9861C22.2085 20.1899 21.9484 20.3663 21.7114 20.5181C22.0812 20.5974 22.3874 20.7889 22.6434 21.9187C22.8073 22.634 23.1514 23.7569 22.3007 24.1713L18.5807 25.9835C18.4209 27.0873 17.8465 28.0283 17.4225 28.7231C17.4143 28.7368 17.4035 28.7477 17.3926 28.7573C17.8627 28.4577 18.9885 27.4634 21.6951 26.4075C21.8798 26.3223 22.086 26.2963 22.2858 26.333C22.4856 26.3696 22.6695 26.4673 22.8127 26.6127C24.1796 27.9968 25.5072 28.6451 26.6167 29.1881C27.779 29.7557 28.7422 30.2262 29.4439 31.2192L31.0451 31.04C31.3621 30.9798 31.6764 31.0619 31.9162 31.2848C32.0149 31.3762 32.0942 31.4868 32.1494 31.61C32.2046 31.7331 32.2345 31.8663 32.2372 32.0015C32.2521 32.7114 32.2318 34.0326 31.8417 34.6754C31.4989 35.2375 30.9327 35.5589 30.2892 35.7012C28.9237 36.0076 28.2287 35.641 27.0407 35.1418C26.9933 35.3976 26.9702 35.5849 26.7968 35.8024C26.6625 35.9706 26.478 36.0905 26.2708 36.1442C26.0635 36.1979 25.8446 36.1826 25.6467 36.1006L22.787 34.9093C22.3968 34.7807 22.1096 34.4142 22.1002 33.9751L22.0785 32.9343C21.0354 33.0246 20.2239 33.2338 19.5276 33.6346C18.62 34.157 17.8289 35.0406 16.909 36.4398C16.8399 36.556 16.7478 36.66 16.6327 36.742C14.7199 38.1289 14.7849 40.2899 14.854 42.5795C14.8675 43.0418 14.877 43.225 14.8797 43.3645C14.8811 43.411 14.9326 43.396 15.0423 43.5998C15.4202 44.3124 16.0854 45.4667 16.6652 45.996C16.7858 46.1055 16.8467 46.1602 16.8481 46.1602C18.0564 46.1342 19.2404 45.7758 20.442 45.7485C22.3697 45.7088 23.7718 46.4009 23.8409 49.6834C23.8409 49.6875 24.4234 50.6641 24.4438 50.6969C25.1902 51.9579 25.5112 53.193 25.2796 54.6564C25.0683 55.9749 24.5548 55.8778 24.9992 57.5341C25.3284 58.7596 25.8933 59.8483 26.1899 61.1121C26.2577 61.4034 26.3119 61.6879 26.3525 61.9642C26.8713 61.9532 27.4674 62.0025 27.9388 61.7672C28.6378 61.4171 29.3396 60.4255 29.4073 59.6322C29.429 59.1699 29.6918 58.906 30.0833 58.7213C29.9709 58.259 29.7744 57.7858 30.0467 57.3358C30.4761 56.6232 31.1047 56.0529 31.7793 55.5851C31.9812 55.4443 32.1194 55.3225 32.1952 55.2199C32.2237 55.1721 32.2237 55.2158 32.2128 55.1447L31.6317 51.4669C31.5789 51.2194 31.6154 50.9527 31.759 50.7215C32.0367 50.2729 32.3903 49.7313 32.8211 49.0994C33.2397 48.4867 33.6935 47.8425 34.1812 47.1695C35.2528 45.691 35.4532 45.3655 35.4207 45.3409C35.3516 45.2889 35.185 45.2246 35.0103 45.1576C34.4779 44.9511 33.9048 44.7254 33.5011 44.1647C33.0473 43.5273 32.8726 42.4796 33.8981 42.2403C36.5803 41.6139 37.2333 40.9956 37.0802 40.3309C36.9515 39.7661 36.453 39.0261 35.9206 38.2342C35.3909 37.4437 34.8301 36.6094 34.4467 35.693C34.3532 35.5069 34.3196 35.2961 34.3505 35.0898C34.4332 34.5427 34.9398 34.1666 35.4817 34.25L40.8557 35.0994C41.1199 35.1418 41.3745 35.1623 41.6048 35.3196L43.5691 36.6613C43.6966 36.7322 43.8072 36.8303 43.8931 36.949C43.979 37.0676 44.0381 37.2038 44.0663 37.3479L44.8764 41.4388L47.2972 36.82C47.6576 35.9925 48.8537 36.0281 49.1477 36.8993C49.7614 38.7198 50.3723 40.5156 51.0036 42.3278C51.0253 41.7752 51.0659 41.0558 51.1431 40.3364C51.2204 39.6033 51.3355 38.8716 51.5021 38.3094C51.6241 37.8964 51.7866 37.5435 51.9966 37.2795C51.83 36.329 51.6078 35.3948 51.3301 34.4771C50.9982 33.3706 50.5837 32.2942 50.0892 31.2465C49.66 30.3373 49.1787 29.4541 48.6478 28.6014C49.1599 27.9722 49.6435 27.3225 50.0946 26.6565ZM5.28994 54.5593C5.33058 54.4308 5.37258 54.3036 5.41593 54.1764C5.63403 53.5253 5.84671 52.8866 5.9009 52.1822L3.79302 51.2207C4.19536 52.3423 4.71556 53.5117 5.28994 54.5593Z" fill="#F5454E"/>
</g>
<defs>
<clipPath id="clip0_346_430">
<rect width="55" height="70" fill="white" transform="translate(0 0.291016)"/>
</clipPath>
</defs>
</svg>
