<svg width="71" height="72" viewBox="0 0 71 72" fill="none" xmlns="http://www.w3.org/2000/svg">
<path d="M53.5344 25.7827H48.568L42.7415 40.9658C37.4221 39.7519 32.4094 37.4848 28.0088 34.3027C33.1479 28.7698 36.5705 21.9046 37.8722 14.5183H45.0998C45.8357 14.5183 46.5414 14.2306 47.0617 13.7185C47.5821 13.2064 47.8744 12.5118 47.8744 11.7876C47.8744 11.0633 47.5821 10.3687 47.0617 9.85661C46.5414 9.34449 45.8357 9.05678 45.0998 9.05678H26.7186V3.02178C26.7186 2.29754 26.4263 1.60296 25.906 1.09084C25.3857 0.578721 24.68 0.291016 23.9441 0.291016C23.2083 0.291016 22.5026 0.578721 21.9822 1.09084C21.4619 1.60296 21.1696 2.29754 21.1696 3.02178V9.05678H2.77452C2.03867 9.05678 1.33296 9.34449 0.812639 9.85661C0.292315 10.3687 0 11.0633 0 11.7876C0 12.5118 0.292315 13.2064 0.812639 13.7185C1.33296 14.2306 2.03867 14.5183 2.77452 14.5183H10.016C11.3115 21.9038 14.7295 28.7694 19.8656 34.3027C15.1333 37.7135 9.71156 40.0837 3.96757 41.2526C3.23172 41.3304 2.55743 41.6928 2.09304 42.26C1.62865 42.8271 1.4122 43.5526 1.49131 44.2769C1.57041 45.0011 1.93859 45.6648 2.51485 46.1218C3.0911 46.5789 3.82824 46.7919 4.56409 46.7141C4.76978 46.7191 4.97518 46.6961 5.17448 46.6458C12.0172 45.2678 18.4421 42.3468 23.9441 38.1122C28.908 41.9437 34.6446 44.69 40.7716 46.1679L31.1024 71.291H38.2745L42.0201 60.6956H59.9713L63.7585 71.291H71L53.5344 25.7827ZM32.3093 14.5183C31.1565 20.5856 28.269 26.2032 23.9857 30.7118C19.6993 26.2054 16.8113 20.5868 15.6622 14.5183H32.3093ZM44.3507 54.3193L51.0512 35.436L57.6962 54.3193H44.3507Z" fill="#F5454E"/>
</svg>
