<svg width="71" height="71" viewBox="0 0 71 71" fill="none" xmlns="http://www.w3.org/2000/svg">
<ellipse cx="29.6667" cy="51.3328" rx="20.4167" ry="10.2083" stroke="#F5454E" stroke-width="2.5" stroke-linejoin="round"/>
<circle cx="29.6667" cy="20.7077" r="11.6667" stroke="#F5454E" stroke-width="2.5" stroke-linejoin="round"/>
<path fill-rule="evenodd" clip-rule="evenodd" d="M43.7426 31.1076C43.1566 31.8994 42.5054 32.64 41.797 33.3214C42.5818 33.5194 43.4036 33.6245 44.2499 33.6245C49.7727 33.6245 54.2499 29.1473 54.2499 23.6245C54.2499 18.6014 50.5463 14.4433 45.7209 13.7319C46.1097 14.6253 46.426 15.5575 46.6626 16.521C49.6211 17.5255 51.7499 20.3264 51.7499 23.6245C51.7499 27.7666 48.392 31.1245 44.2499 31.1245C44.0794 31.1245 43.9102 31.1188 43.7426 31.1076Z" fill="#F5454E"/>
<path fill-rule="evenodd" clip-rule="evenodd" d="M55.8435 52.5399C55.7211 53.5453 55.447 54.5248 55.0353 55.47C55.7659 55.2442 56.4578 54.9954 57.1052 54.7257C58.779 54.0282 60.2152 53.1659 61.252 52.1446C62.2933 51.1188 63 49.858 63 48.4158C63 46.9736 62.2933 45.7128 61.252 44.6871C60.2152 43.6657 58.779 42.8034 57.1052 42.106C54.7054 41.1061 51.6947 40.3942 48.3599 40.0703C49.8835 41.0147 51.2169 42.0739 52.3222 43.2249C53.7422 43.5466 55.0285 43.9491 56.1436 44.4137C57.6367 45.0358 58.7633 45.7447 59.4976 46.4681C60.2275 47.1871 60.5 47.8445 60.5 48.4158C60.5 48.9872 60.2275 49.6446 59.4976 50.3636C58.7633 51.0869 57.6367 51.7959 56.1436 52.418C56.0449 52.4591 55.9449 52.4997 55.8435 52.5399Z" fill="#F5454E"/>
</svg>
