<svg width="17" height="17" viewBox="0 0 17 17" fill="none" xmlns="http://www.w3.org/2000/svg">
<path d="M8.42427 16.669C7.08194 16.669 5.88876 16.4858 4.84473 16.1193C3.80495 15.7571 2.92711 15.2223 2.2112 14.5149C1.49529 13.8118 0.951971 12.9531 0.581232 11.9389C0.210494 10.9247 0.0229936 9.76562 0.0187323 8.46165C0.0229936 7.1875 0.212624 6.03906 0.587624 5.01634C0.962624 3.98935 1.51021 3.11151 2.23038 2.38281C2.95055 1.64986 3.83052 1.08736 4.87029 0.695312C5.91007 0.303267 7.0926 0.107244 8.41788 0.107244C9.66646 0.107244 10.7723 0.296874 11.7354 0.676136C12.7027 1.0554 13.5187 1.58381 14.1835 2.26136C14.8525 2.93466 15.3575 3.72301 15.6984 4.62642C16.0436 5.52557 16.2162 6.50142 16.2162 7.55398C16.2162 8.28267 16.1608 8.97301 16.05 9.625C15.9392 10.2727 15.7496 10.848 15.4811 11.3509C15.2169 11.8537 14.8568 12.2543 14.4008 12.5526C13.9449 12.8466 13.3738 13.0064 12.6878 13.032C12.2574 13.0533 11.8802 13.0128 11.5564 12.9105C11.2325 12.8082 10.9704 12.6484 10.7702 12.4311C10.5741 12.2095 10.4506 11.9389 10.3994 11.6193H10.3227C10.2247 11.875 10.0393 12.1094 9.7666 12.3224C9.49814 12.5312 9.16575 12.6953 8.76944 12.8146C8.37314 12.9297 7.93209 12.9766 7.44629 12.9553C6.9264 12.9297 6.44487 12.8104 6.00169 12.5973C5.56277 12.38 5.17924 12.0774 4.85112 11.6896C4.52726 11.2976 4.27583 10.8246 4.09686 10.2706C3.91788 9.71662 3.82839 9.08807 3.82839 8.38494C3.82839 7.69886 3.9264 7.09375 4.12243 6.5696C4.31845 6.04545 4.58052 5.59801 4.90865 5.22727C5.24103 4.85653 5.61603 4.56676 6.03365 4.35795C6.45126 4.14489 6.88166 4.00852 7.32484 3.94886C7.78507 3.88494 8.2176 3.89134 8.62243 3.96804C9.02726 4.04474 9.3639 4.16193 9.63237 4.3196C9.9051 4.47727 10.0756 4.64986 10.1437 4.83736H10.2332V4.12145H12.0166V10.2067C12.0209 10.5263 12.0976 10.7841 12.2467 10.9801C12.4001 11.1761 12.6132 11.2741 12.8859 11.2741C13.2268 11.2741 13.5017 11.1399 13.7105 10.8714C13.9236 10.5987 14.077 10.1811 14.1707 9.61861C14.2687 9.05185 14.3156 8.32741 14.3113 7.44531C14.3156 6.72088 14.2197 6.06463 14.0237 5.47656C13.8319 4.88423 13.5592 4.36435 13.2055 3.9169C12.8518 3.46946 12.4278 3.09659 11.9335 2.7983C11.4434 2.49574 10.898 2.26776 10.2971 2.11435C9.69629 1.96094 9.05495 1.88423 8.37314 1.88423C7.3291 1.88423 6.41078 2.04403 5.61816 2.36364C4.82555 2.67898 4.16078 3.12855 3.62385 3.71236C3.09118 4.29616 2.68848 4.98864 2.41575 5.78977C2.14728 6.58665 2.01305 7.46875 2.01305 8.43608C2.01305 9.47159 2.15368 10.3899 2.43493 11.1911C2.72044 11.9879 3.13805 12.6591 3.68777 13.2045C4.23748 13.75 4.91717 14.1634 5.72683 14.4446C6.54075 14.7259 7.47612 14.8665 8.53294 14.8665C9.01873 14.8665 9.49387 14.8281 9.95836 14.7514C10.4229 14.6747 10.8405 14.5852 11.2112 14.483C11.5819 14.3807 11.8675 14.2912 12.0677 14.2145L12.6111 15.8381C12.3469 15.9744 11.9889 16.1065 11.5372 16.2344C11.0898 16.3622 10.5954 16.4666 10.0542 16.5476C9.51731 16.6286 8.97399 16.669 8.42427 16.669ZM7.97683 11.1207C8.51802 11.1207 8.95055 11.0163 9.27441 10.8075C9.59828 10.5945 9.83052 10.2791 9.97115 9.86151C10.1118 9.44389 10.18 8.92401 10.1757 8.30185C10.1757 7.7223 10.1032 7.24716 9.95836 6.87642C9.81348 6.50568 9.58123 6.23082 9.26163 6.05185C8.94203 5.87287 8.51802 5.78338 7.98961 5.78338C7.51234 5.78338 7.10538 5.89205 6.76873 6.10938C6.43635 6.3267 6.18066 6.62713 6.00169 7.01065C5.82697 7.38991 5.73961 7.82244 5.73961 8.30824C5.73961 8.79403 5.80993 9.25213 5.95055 9.68253C6.09544 10.1087 6.32981 10.456 6.65368 10.7244C6.9818 10.9886 7.42285 11.1207 7.97683 11.1207Z" fill="white"/>
</svg>
