<svg width="18" height="18" viewBox="0 0 18 18" fill="none" xmlns="http://www.w3.org/2000/svg">
<path d="M2.81548 1.56952H4.26434V3.4873C4.26434 4.02062 4.51414 4.49171 4.91737 4.81937C5.25824 5.09675 5.71178 5.26831 6.19615 5.26831C6.68052 5.26831 7.13406 5.09675 7.47493 4.81937C7.87816 4.49171 8.12831 4.02062 8.12831 3.4873V1.56952H11.053V3.4873C11.053 4.02062 11.3031 4.49171 11.7063 4.81937C12.0472 5.09675 12.5004 5.26831 12.9851 5.26831C13.4695 5.26831 13.923 5.09675 14.2639 4.81937C14.6671 4.49171 14.9169 4.02062 14.9169 3.4873V1.56952H16.4292C17.2934 1.56952 18 2.27054 18 3.128V6.74663V15.9769C18 16.4058 17.8232 16.7953 17.5386 17.0776C17.253 17.36 16.8604 17.5354 16.4292 17.5354H9.21824C9.30292 17.3723 9.37521 17.1975 9.42765 17.02C9.44253 16.9701 9.45599 16.9201 9.46804 16.8699H15.9261C16.6057 16.8699 17.1616 16.3162 17.1616 15.6443V6.08113H2.08343V8.60359C1.78296 8.58109 1.50339 8.59585 1.24509 8.64155V6.74663V3.12765C1.24509 2.27195 1.95304 1.56952 2.81548 1.56952ZM12.8136 12.4296H14.8716C15.0158 12.4296 15.1338 12.5474 15.1338 12.6898V14.3882C15.1338 14.5306 15.0151 14.6484 14.8716 14.6484H12.8136C12.6701 14.6484 12.5514 14.5313 12.5514 14.3882V12.6898C12.5514 12.5467 12.6694 12.4296 12.8136 12.4296ZM4.37347 8.01402H6.43107C6.57528 8.01402 6.69328 8.13179 6.69328 8.27417V9.97257C6.69328 10.115 6.57457 10.2327 6.43107 10.2327H4.37347C4.22997 10.2327 4.11127 10.1157 4.11127 9.97257V8.27417C4.11127 8.13109 4.22926 8.01402 4.37347 8.01402ZM12.8136 8.01402H14.8716C15.0154 8.01402 15.1338 8.13179 15.1338 8.27417V9.97257C15.1338 10.115 15.0151 10.2327 14.8716 10.2327H12.8136C12.6701 10.2327 12.5514 10.1157 12.5514 9.97257V8.27417C12.5514 8.13109 12.6694 8.01402 12.8136 8.01402ZM8.70481 8.01402H10.7624C10.9066 8.01402 11.0246 8.13179 11.0246 8.27417V9.97257C11.0246 10.115 10.9059 10.2327 10.7624 10.2327H8.70481C8.56131 10.2327 8.44261 10.1157 8.44261 9.97257V8.27417C8.44261 8.13109 8.5606 8.01402 8.70481 8.01402ZM8.70481 12.4296H10.7624C10.9066 12.4296 11.0246 12.5474 11.0246 12.6898V14.3882C11.0246 14.5306 10.9059 14.6484 10.7624 14.6484H8.70481C8.56131 14.6484 8.44261 14.5313 8.44261 14.3882V12.6898C8.44261 12.5467 8.5606 12.4296 8.70481 12.4296ZM2.42607 13.3258C2.68154 13.7589 2.97457 14.1748 3.34202 14.5587C3.76509 15.0034 4.29162 15.4084 4.97406 15.7533C5.02473 15.7783 5.07257 15.7783 5.11509 15.7607C5.26178 15.7048 5.39891 15.523 5.49032 15.4007C5.75253 15.0583 6.07745 14.6336 6.53595 14.8459C6.54587 14.8509 6.55367 14.8561 6.56359 14.861L8.09253 15.7333C8.09749 15.7357 8.10245 15.7407 8.10741 15.7431C8.30902 15.8809 8.39229 16.0933 8.39477 16.333C8.39477 16.5781 8.30406 16.853 8.17048 17.0854C7.63083 18.0265 6.0941 18.1506 5.14308 17.8599C4.49076 17.6602 3.5819 17.1311 3.00434 16.7029C2.12524 16.0455 1.23127 15.0959 0.649456 14.0514C0.160479 13.1743 -0.106332 12.2271 0.040007 11.3247C0.12044 10.83 0.334456 10.38 0.707212 10.0826C1.03213 9.82281 1.47044 9.68042 2.03737 9.73034C2.10292 9.73527 2.16068 9.77288 2.19079 9.82773L3.17087 11.4723C3.31438 11.6573 3.33174 11.8397 3.25379 12.0218C3.18824 12.1719 3.05749 12.3094 2.87855 12.4395C2.70209 12.5896 2.27087 12.815 2.29887 13.0712C2.30808 13.1514 2.38107 13.2495 2.42607 13.3258ZM12.2265 0.618549C12.2265 0.278236 12.566 0.0015564 12.9851 0.0015564C13.4043 0.0015564 13.7434 0.278236 13.7434 0.618549V3.4873C13.7434 3.82761 13.4043 4.10429 12.9851 4.10429C12.566 4.10429 12.2265 3.82761 12.2265 3.4873V0.618549ZM5.43788 0.618549C5.43788 0.278236 5.77698 0.0015564 6.19615 0.0015564C6.61532 0.0015564 6.95477 0.278236 6.95477 0.618549V3.4873C6.95477 3.82761 6.61532 4.10429 6.19615 4.10429C5.77698 4.10429 5.43788 3.82761 5.43788 3.4873V0.618549Z" fill="white"/>
</svg>
