<svg width="16" height="16" viewBox="0 0 16 16" fill="none" xmlns="http://www.w3.org/2000/svg">
<path fill-rule="evenodd" clip-rule="evenodd" d="M15.5 12.4617V13.8333C15.5 14.7538 14.7538 15.5 13.8333 15.5C6.46954 15.5 0.5 9.53046 0.5 2.16667C0.5 1.24619 1.24619 0.5 2.16667 0.5H3.53828C4.21979 0.5 4.83263 0.914919 5.08574 1.54768L5.76379 3.2428C6.08571 4.04761 5.73698 4.96484 4.96168 5.35249L4.66667 5.5C4.66667 5.5 5.08333 7.58333 6.75 9.25C8.41667 10.9167 10.5 11.3333 10.5 11.3333L10.6475 11.0383C11.0352 10.263 11.9524 9.91429 12.7572 10.2362L14.4523 10.9143C15.0851 11.1674 15.5 11.7802 15.5 12.4617ZM14.25 2.16667C14.25 3.08714 13.5038 3.83333 12.5833 3.83333C11.6629 3.83333 10.9167 3.08714 10.9167 2.16667C10.9167 1.24619 11.6629 0.5 12.5833 0.5C13.5038 0.5 14.25 1.24619 14.25 2.16667ZM14 4.66667C14.8284 4.66667 15.5 5.33824 15.5 6.16667C15.5 6.71895 15.0523 7.16667 14.5 7.16667H10.6667C10.1144 7.16667 9.66667 6.71895 9.66667 6.16667C9.66667 5.33824 10.3382 4.66667 11.1667 4.66667H14Z" fill="white"/>
</svg>
