<svg width="22" height="22" viewBox="0 0 22 22" fill="none" xmlns="http://www.w3.org/2000/svg">
<g clip-path="url(#clip0_329_856)">
<path d="M16.5 7.89885H14.9854L13.2085 12.6035C11.5862 12.2273 10.0574 11.5248 8.71539 10.5388C10.2827 8.8244 11.3265 6.69716 11.7235 4.40846H13.9277C14.1521 4.40846 14.3673 4.31931 14.526 4.16063C14.6847 4.00194 14.7738 3.78672 14.7738 3.56231C14.7738 3.33789 14.6847 3.12267 14.526 2.96399C14.3673 2.8053 14.1521 2.71615 13.9277 2.71615H8.32192V0.846154C8.32192 0.62174 8.23278 0.406517 8.07409 0.247833C7.91541 0.0891481 7.70018 0 7.47577 0C7.25136 0 7.03613 0.0891481 6.87745 0.247833C6.71876 0.406517 6.62962 0.62174 6.62962 0.846154V2.71615H1.01962C0.795202 2.71615 0.579979 2.8053 0.421295 2.96399C0.26261 3.12267 0.173462 3.33789 0.173462 3.56231C0.173462 3.78672 0.26261 4.00194 0.421295 4.16063C0.579979 4.31931 0.795202 4.40846 1.01962 4.40846H3.22808C3.62317 6.69692 4.66557 8.8243 6.23192 10.5388C4.7887 11.5957 3.13522 12.3301 1.38346 12.6923C1.15905 12.7164 0.953409 12.8287 0.811783 13.0045C0.670157 13.1802 0.604145 13.405 0.62827 13.6294C0.652394 13.8538 0.764679 14.0595 0.940422 14.2011C1.11617 14.3427 1.34097 14.4087 1.56539 14.3846C1.62811 14.3862 1.69076 14.3791 1.75154 14.3635C3.83839 13.9365 5.79779 13.0314 7.47577 11.7192C8.98962 12.9065 10.7391 13.7574 12.6077 14.2154L9.65885 22H11.8462L12.9885 18.7169H18.4631L19.6181 22H21.8265L16.5 7.89885ZM10.0269 4.40846C9.67534 6.28846 8.79473 8.02914 7.48846 9.42615C6.18122 8.02982 5.30046 6.28884 4.95 4.40846H10.0269ZM13.6992 16.7412L15.7427 10.89L17.7692 16.7412H13.6992Z" fill="white"/>
</g>
<defs>
<clipPath id="clip0_329_856">
<rect width="22" height="22" fill="white"/>
</clipPath>
</defs>
</svg>
