<svg width="23" height="20" viewBox="0 0 23 20" fill="none" xmlns="http://www.w3.org/2000/svg">
<path d="M14.375 13.3333L14.2465 14.0722C14.557 14.1262 14.8681 13.9804 15.0252 13.7072L14.375 13.3333ZM7.66667 7.5L7.36762 6.8122C7.03631 6.95625 6.85477 7.31603 6.93575 7.66811L7.66667 7.5ZM8.00593 7.35249L8.30498 8.0403L8.00593 7.35249ZM8.92835 5.2428L9.60972 4.92937V4.92937L8.92835 5.2428ZM8.1486 3.54768L7.46723 3.86111V3.86111L8.1486 3.54768ZM18.9202 12.9143L18.6738 13.6226L18.9202 12.9143ZM16.9708 12.2362L17.2172 11.5278L16.9708 12.2362ZM14.5446 13.0383L15.1948 13.4122V13.4122L14.5446 13.0383ZM15.5417 9.16667C15.5417 9.58088 15.8775 9.91667 16.2917 9.91667C16.7059 9.91667 17.0417 9.58088 17.0417 9.16667H15.5417ZM15.9999 7.89105L16.677 7.56852L15.9999 7.89105ZM13.9253 6.08707L14.1794 5.38144L13.9253 6.08707ZM12.4583 5.08333C12.0441 5.08333 11.7083 5.41912 11.7083 5.83333C11.7083 6.24755 12.0441 6.58333 12.4583 6.58333V5.08333ZM19.375 9.16667C19.375 9.58088 19.7108 9.91667 20.125 9.91667C20.5392 9.91667 20.875 9.58088 20.875 9.16667H19.375ZM19.5414 6.61544L20.2185 6.29291L19.5414 6.61544ZM15.3922 3.00747L15.6464 2.30185V2.30185L15.3922 3.00747ZM12.4583 1.75C12.0441 1.75 11.7083 2.08579 11.7083 2.5C11.7083 2.91421 12.0441 3.25 12.4583 3.25V1.75ZM19.375 14.4617V15.8333H20.875V14.4617H19.375ZM4.79167 3.25H6.36902V1.75H4.79167V3.25ZM14.375 13.3333C14.5035 12.5944 14.5037 12.5945 14.5039 12.5945C14.5039 12.5945 14.5041 12.5945 14.5042 12.5945C14.5044 12.5946 14.5045 12.5946 14.5046 12.5946C14.5049 12.5947 14.505 12.5947 14.5049 12.5947C14.5048 12.5947 14.5041 12.5945 14.5029 12.5943C14.5005 12.5939 14.4958 12.593 14.489 12.5917C14.4755 12.5891 14.4534 12.5847 14.4235 12.5784C14.3637 12.5658 14.2729 12.5453 14.1565 12.5156C13.9234 12.456 13.5899 12.3594 13.1994 12.2139C12.4134 11.9209 11.4234 11.4395 10.5546 10.684L9.57037 11.816C10.6182 12.7271 11.7846 13.2874 12.6756 13.6194C13.1236 13.7864 13.5089 13.8982 13.7849 13.9688C13.9231 14.0041 14.0344 14.0293 14.1131 14.0459C14.1525 14.0543 14.1838 14.0605 14.2062 14.0648C14.2175 14.067 14.2265 14.0686 14.2332 14.0699C14.2366 14.0705 14.2394 14.071 14.2416 14.0714C14.2427 14.0716 14.2437 14.0717 14.2445 14.0719C14.2449 14.072 14.2453 14.072 14.2456 14.0721C14.2458 14.0721 14.246 14.0722 14.2461 14.0722C14.2463 14.0722 14.2465 14.0722 14.375 13.3333ZM10.5546 10.684C9.68933 9.9316 9.14574 9.08226 8.81856 8.41844C8.65541 8.0874 8.54778 7.80591 8.48195 7.61126C8.44907 7.51408 8.42677 7.43899 8.41327 7.39073C8.40653 7.36662 8.402 7.34926 8.39945 7.33924C8.39818 7.33423 8.39741 7.33106 8.3971 7.32981C8.39695 7.32919 8.39692 7.32904 8.397 7.32938C8.39704 7.32956 8.39711 7.32985 8.39721 7.33027C8.39726 7.33047 8.39731 7.33071 8.39737 7.33098C8.39741 7.33112 8.39746 7.33135 8.39747 7.33141C8.39753 7.33165 8.39758 7.33189 7.66667 7.5C6.93575 7.66811 6.93581 7.66837 6.93587 7.66863C6.93589 7.66873 6.93596 7.66901 6.936 7.66921C6.93609 7.6696 6.93619 7.67003 6.9363 7.67049C6.93652 7.67142 6.93676 7.67247 6.93704 7.67365C6.9376 7.67601 6.93828 7.67887 6.93909 7.68224C6.94072 7.68898 6.94287 7.69771 6.94558 7.70837C6.95099 7.72968 6.95862 7.75871 6.96873 7.79481C6.98892 7.867 7.01902 7.9677 7.06102 8.09187C7.14492 8.33992 7.27688 8.68343 7.4731 9.08156C7.86468 9.87607 8.51901 10.9017 9.57037 11.816L10.5546 10.684ZM7.96571 8.1878L8.30498 8.0403L7.70689 6.66469L7.36762 6.8122L7.96571 8.1878ZM9.60972 4.92937L8.82997 3.23425L7.46723 3.86111L8.24699 5.55623L9.60972 4.92937ZM19.1666 12.2059L17.2172 11.5278L16.7244 12.9446L18.6738 13.6226L19.1666 12.2059ZM13.8945 12.6645L13.7248 12.9595L15.0252 13.7072L15.1948 13.4122L13.8945 12.6645ZM17.2172 11.5278C15.9987 11.104 14.5438 11.5351 13.8945 12.6645L15.1948 13.4122C15.437 12.9909 16.0918 12.7246 16.7244 12.9446L17.2172 11.5278ZM8.30498 8.0403C9.51852 7.51267 10.1833 6.17622 9.60972 4.92937L8.24699 5.55623C8.41387 5.91901 8.27654 6.41702 7.70689 6.66469L8.30498 8.0403ZM6.36902 3.25C6.906 3.25 7.31673 3.53394 7.46723 3.86111L8.82997 3.23425C8.39832 2.2959 7.3995 1.75 6.36902 1.75V3.25ZM20.875 14.4617C20.875 13.4092 20.1438 12.5458 19.1666 12.2059L18.6738 13.6226C19.1519 13.7889 19.375 14.1512 19.375 14.4617H20.875ZM18.2083 16.75C10.0523 16.75 3.625 11.0213 3.625 4.16667H2.125C2.125 12.0397 9.42761 18.25 18.2083 18.25V16.75ZM18.2083 18.25C19.5792 18.25 20.875 17.263 20.875 15.8333H19.375C19.375 16.2446 18.9545 16.75 18.2083 16.75V18.25ZM3.625 4.16667C3.625 3.7554 4.04548 3.25 4.79167 3.25V1.75C3.42076 1.75 2.125 2.73698 2.125 4.16667H3.625ZM17.0417 9.16667C17.0417 8.61467 16.9165 8.07126 16.677 7.56852L15.3228 8.21359C15.4686 8.51969 15.5417 8.84318 15.5417 9.16667H17.0417ZM16.677 7.56852C16.4377 7.06623 16.0905 6.61715 15.661 6.24369L14.6768 7.3756C14.9592 7.6212 15.1767 7.90705 15.3228 8.21359L16.677 7.56852ZM15.661 6.24369C15.2318 5.8704 14.7276 5.57887 14.1794 5.38144L13.6711 6.79269C14.0532 6.9303 14.3941 7.12983 14.6768 7.3756L15.661 6.24369ZM14.1794 5.38144C13.6313 5.18402 13.0468 5.08333 12.4583 5.08333V6.58333C12.8767 6.58333 13.2891 6.65508 13.6711 6.79269L14.1794 5.38144ZM20.875 9.16667C20.875 8.17693 20.6506 7.20007 20.2185 6.29291L18.8643 6.93798C19.2028 7.64849 19.375 8.40544 19.375 9.16667H20.875ZM20.2185 6.29291C19.7866 5.3862 19.1571 4.56965 18.3716 3.88667L17.3874 5.01858C18.0258 5.5737 18.5256 6.22702 18.8643 6.93798L20.2185 6.29291ZM18.3716 3.88667C17.5864 3.20385 16.6596 2.66679 15.6464 2.30185L15.1381 3.71309C15.9852 4.01822 16.7488 4.46328 17.3874 5.01858L18.3716 3.88667ZM15.6464 2.30185C14.6332 1.93691 13.5502 1.75 12.4583 1.75V3.25C13.3801 3.25 14.2909 3.40797 15.1381 3.71309L15.6464 2.30185Z" fill="white"/>
</svg>
