<svg width="19" height="19" viewBox="0 0 19 19" fill="none" xmlns="http://www.w3.org/2000/svg">
<path d="M9.47467 13.2414C11.5548 13.2414 13.2412 11.555 13.2412 9.47487C13.2412 7.39467 11.5548 5.70834 9.47467 5.70834C7.39446 5.70834 5.70813 7.39467 5.70813 9.47487C5.70813 11.555 7.39446 13.2414 9.47467 13.2414Z" stroke="white" stroke-width="1.3" stroke-linecap="round" stroke-linejoin="round"/>
<path d="M1 13.2412V5.70817C1 3.10792 3.10792 1 5.70817 1H13.2412C15.8415 1 17.9494 3.10792 17.9494 5.70817V13.2412C17.9494 15.8415 15.8415 17.9494 13.2412 17.9494H5.70817C3.10792 17.9494 1 15.8415 1 13.2412Z" stroke="white" stroke-width="1.5"/>
<path d="M14.6536 4.30622L14.6637 4.29495" stroke="black" stroke-width="2.5" stroke-linecap="round" stroke-linejoin="round"/>
</svg>
