<svg width="20" height="17" viewBox="0 0 20 17" fill="none" xmlns="http://www.w3.org/2000/svg">
<path d="M19 1.00841C19 1.00841 17.349 2.00495 16.4309 2.28741C15.9381 1.70852 15.2832 1.29822 14.5548 1.112C13.8264 0.925784 13.0596 0.972622 12.3581 1.24619C11.6566 1.51977 11.0541 2.00686 10.6325 2.64161C10.2107 3.27636 9.98994 4.02812 10 4.79525V5.6312C8.56213 5.66928 7.1374 5.34347 5.85264 4.68276C4.56788 4.02206 3.46299 3.04697 2.63636 1.84436C2.63636 1.84436 -0.636364 9.36791 6.72727 12.7117C5.04225 13.8803 3.03495 14.4663 1 14.3836C8.36364 18.5633 17.3636 14.3836 17.3636 4.77017C17.3629 4.53732 17.341 4.30504 17.2982 4.07633C18.1332 3.23494 19 1.00841 19 1.00841Z" stroke="black" stroke-width="1.5" stroke-linecap="round" stroke-linejoin="round"/>
</svg>
