<svg width="17" height="16" viewBox="0 0 17 16" fill="none" xmlns="http://www.w3.org/2000/svg">
<path d="M16.5851 13.7241L12.9888 10.3394C13.7319 9.28543 14.1668 8.02342 14.1668 6.66674C14.1668 2.9907 10.9892 0 7.08341 0C3.17762 0 0 2.9907 0 6.66674C0 10.3428 3.17762 13.3335 7.08341 13.3335C8.52488 13.3335 9.86577 12.9241 10.9857 12.2248L14.5819 15.6095C15.1344 16.1302 16.0326 16.1302 16.5851 15.6095C17.1383 15.0888 17.1383 14.2448 16.5851 13.7241ZM2.12502 6.66674C2.12502 4.09338 4.34921 2.00002 7.08341 2.00002C9.8176 2.00002 12.0418 4.09338 12.0418 6.66674C12.0418 9.2401 9.8176 11.3335 7.08341 11.3335C4.34921 11.3335 2.12502 9.2401 2.12502 6.66674Z" fill="white"/>
</svg>
