<svg width="80" height="81" viewBox="0 0 80 81" fill="none" xmlns="http://www.w3.org/2000/svg">
<circle cx="40" cy="40.291" r="40" fill="#F5454E"/>
<path d="M44.625 47.291L44.452 48.2759C44.868 48.349 45.285 48.1528 45.494 47.7859L44.625 47.291ZM32.6667 36.791L32.2647 35.8754C31.8256 36.0682 31.5851 36.5455 31.6916 37.0131L32.6667 36.791ZM33.2714 36.5255L33.6734 37.4411L33.2714 36.5255ZM34.9158 32.7281L35.8258 32.3135V32.3135L34.9158 32.7281ZM33.5258 29.6768L32.6157 30.0914V30.0914L33.5258 29.6768ZM52.7273 46.5367L52.3959 47.4802L52.7273 46.5367ZM49.2523 45.3162L49.5836 44.3727L49.5836 44.3727L49.2523 45.3162ZM44.9274 46.76L45.7964 47.2548V47.2548L44.9274 46.76ZM47.0417 39.791C47.0417 40.3433 47.4894 40.791 48.0417 40.791C48.594 40.791 49.0417 40.3433 49.0417 39.791H47.0417ZM47.5215 37.4949L48.4259 37.0683H48.4259L47.5215 37.4949ZM43.8233 34.2477L44.1651 33.308L43.8233 34.2477ZM41.2083 32.791C40.656 32.791 40.2083 33.2387 40.2083 33.791C40.2083 34.3433 40.656 34.791 41.2083 34.791V32.791ZM53.875 39.791C53.875 40.3433 54.3227 40.791 54.875 40.791C55.4273 40.791 55.875 40.3433 55.875 39.791H53.875ZM53.8347 35.1988L54.7391 34.7722L53.8347 35.1988ZM46.4383 28.7045L46.7801 27.7647V27.7647L46.4383 28.7045ZM41.2083 26.791C40.656 26.791 40.2083 27.2387 40.2083 27.791C40.2083 28.3433 40.656 28.791 41.2083 28.791V26.791ZM53.875 49.3221V51.791H55.875V49.3221H53.875ZM27.5417 28.791H30.3535V26.791H27.5417V28.791ZM44.625 47.291C44.798 46.3061 44.7982 46.3061 44.7984 46.3062C44.7985 46.3062 44.7987 46.3062 44.7988 46.3062C44.799 46.3063 44.7992 46.3063 44.7993 46.3063C44.7995 46.3064 44.7994 46.3063 44.7991 46.3063C44.7984 46.3062 44.7968 46.3059 44.7941 46.3054C44.7888 46.3044 44.7796 46.3027 44.7665 46.3001C44.7404 46.2951 44.699 46.2868 44.6437 46.275C44.533 46.2513 44.3666 46.2135 44.1543 46.1587C43.7294 46.049 43.1235 45.8718 42.4147 45.6051C40.9905 45.0692 39.1864 44.1849 37.5973 42.7896L36.2777 44.2925C38.1052 45.8971 40.1449 46.8879 41.7103 47.4769C42.4963 47.7727 43.1716 47.9706 43.6543 48.0952C43.8958 48.1576 44.0897 48.2018 44.2259 48.2309C44.2941 48.2454 44.3478 48.2562 44.3859 48.2636C44.4049 48.2673 44.4201 48.2701 44.4312 48.2722C44.4367 48.2732 44.4412 48.274 44.4447 48.2746C44.4464 48.275 44.4479 48.2752 44.4492 48.2754C44.4498 48.2755 44.4503 48.2756 44.4508 48.2757C44.451 48.2758 44.4513 48.2758 44.4515 48.2758C44.4518 48.2759 44.452 48.2759 44.625 47.291ZM37.5973 42.7896C36.0125 41.398 35.0179 39.8283 34.4195 38.6024C34.1209 37.9907 33.9234 37.4693 33.8017 37.1062C33.741 36.9249 33.6994 36.7836 33.6737 36.691C33.6609 36.6448 33.6521 36.6107 33.6469 36.59C33.6443 36.5796 33.6426 36.5726 33.6417 36.5691C33.6413 36.5673 33.6411 36.5664 33.6411 36.5663C33.6411 36.5663 33.6411 36.5665 33.6412 36.567C33.6413 36.5672 33.6414 36.5674 33.6414 36.5678C33.6415 36.5679 33.6415 36.5682 33.6416 36.5683C33.6416 36.5686 33.6417 36.5689 32.6667 36.791C31.6916 37.0131 31.6917 37.0134 31.6918 37.0138C31.6918 37.0139 31.6919 37.0143 31.692 37.0146C31.6921 37.0152 31.6923 37.0158 31.6924 37.0164C31.6927 37.0178 31.6931 37.0194 31.6935 37.0212C31.6943 37.0248 31.6954 37.0293 31.6967 37.0347C31.6993 37.0455 31.7028 37.0599 31.7073 37.0777C31.7162 37.1134 31.7291 37.1628 31.7463 37.225C31.7808 37.3492 31.8326 37.5244 31.9053 37.7415C32.0506 38.1752 32.2801 38.7789 32.6222 39.4797C33.3051 40.8787 34.4458 42.684 36.2777 44.2925L37.5973 42.7896ZM33.0687 37.7067L33.6734 37.4411L32.8695 35.6099L32.2647 35.8754L33.0687 37.7067ZM35.8258 32.3135L34.4358 29.2623L32.6157 30.0914L34.0057 33.1426L35.8258 32.3135ZM53.0586 45.5932L49.5836 44.3727L48.9209 46.2597L52.3959 47.4802L53.0586 45.5932ZM44.0584 46.2652L43.756 46.7962L45.494 47.7859L45.7964 47.2548L44.0584 46.2652ZM49.5836 44.3727C47.5372 43.6539 45.1221 44.3972 44.0584 46.2652L45.7964 47.2548C46.3221 46.3317 47.6676 45.8195 48.9209 46.2597L49.5836 44.3727ZM33.6734 37.4411C35.6956 36.5533 36.7506 34.3437 35.8258 32.3135L34.0057 33.1426C34.4008 34.0098 34.026 35.1021 32.8695 35.6099L33.6734 37.4411ZM30.3535 28.791C31.4163 28.791 32.2819 29.3586 32.6157 30.0914L34.4358 29.2623C33.7319 27.7172 32.0849 26.791 30.3535 26.791V28.791ZM55.875 49.3221C55.875 47.6068 54.6924 46.167 53.0586 45.5932L52.3959 47.4802C53.3564 47.8175 53.875 48.584 53.875 49.3221H55.875ZM51.4583 53.791C36.7887 53.791 25.125 43.3753 25.125 30.791H23.125C23.125 44.7164 35.9364 55.791 51.4583 55.791V53.791ZM51.4583 55.791C53.7714 55.791 55.875 54.1184 55.875 51.791H53.875C53.875 52.7774 52.9192 53.791 51.4583 53.791V55.791ZM25.125 30.791C25.125 29.8047 26.0808 28.791 27.5417 28.791V26.791C25.2286 26.791 23.125 28.4637 23.125 30.791H25.125ZM49.0417 39.791C49.0417 38.8523 48.8309 37.9267 48.4259 37.0683L46.6171 37.9216C46.899 38.5191 47.0417 39.1539 47.0417 39.791H49.0417ZM48.4259 37.0683C48.0212 36.2104 47.4323 35.4399 46.7 34.7969L45.3804 36.2998C45.9172 36.7711 46.335 37.3235 46.6171 37.9216L48.4259 37.0683ZM46.7 34.7969C45.968 34.1542 45.1057 33.65 44.1651 33.308L43.4815 35.1875C44.1991 35.4485 44.8434 35.8283 45.3804 36.2998L46.7 34.7969ZM44.1651 33.308C43.2246 32.9659 42.2202 32.791 41.2083 32.791V34.791C41.9912 34.791 42.7639 34.9265 43.4815 35.1875L44.1651 33.308ZM55.875 39.791C55.875 38.0644 55.4875 36.3585 54.7391 34.7722L52.9303 35.6255C53.5555 36.9509 53.875 38.3659 53.875 39.791H55.875ZM54.7391 34.7722C53.991 33.1863 52.8988 31.7544 51.5319 30.5543L50.2123 32.0572C51.3836 33.0856 52.3048 34.2995 52.9303 35.6255L54.7391 34.7722ZM51.5319 30.5543C50.1653 29.3544 48.5497 28.4083 46.7801 27.7647L46.0965 29.6442C47.6432 30.2067 49.0408 31.0285 50.2123 32.0572L51.5319 30.5543ZM46.7801 27.7647C45.0106 27.1211 43.1176 26.791 41.2083 26.791V28.791C42.8885 28.791 44.5499 29.0817 46.0965 29.6442L46.7801 27.7647Z" fill="white"/>
</svg>
