<svg width="80" height="81" viewBox="0 0 80 81" fill="none" xmlns="http://www.w3.org/2000/svg">
<circle cx="40" cy="40.291" r="40" fill="#F5454E"/>
<path d="M66 36.3786C66 29.0517 60.0392 23.0909 52.7123 23.0909C48.2524 23.0909 44.3018 25.3016 41.8905 28.6825C40.8081 28.4518 39.6877 28.3248 38.5406 28.3117C37.4416 22.6009 32.4096 18.2725 26.3831 18.2725C19.5548 18.2725 14 23.8275 14 30.6555C14 35.8074 17.1633 40.2329 21.6488 42.096C21.4488 43.137 21.3429 44.2108 21.3429 45.3092C21.3429 54.683 28.9691 62.309 38.3427 62.309C46.2716 62.309 52.9494 56.8526 54.8199 49.4975C61.1486 48.4842 66 42.9883 66 36.3786ZM38.3427 60.4101C30.016 60.4101 23.2418 53.6357 23.2418 45.3092C23.2418 36.9827 30.0162 30.2083 38.3427 30.2083C46.6692 30.2083 53.4436 36.9827 53.4436 45.3092C53.4436 53.6357 46.6694 60.4101 38.3427 60.4101ZM25.6615 20.1957C30.9806 19.8378 35.5332 23.4739 36.619 28.396C33.9026 28.6708 31.3731 29.5876 29.185 30.992C29.185 30.8414 29.0629 30.7193 28.9123 30.7193H27.872L29.9429 26.5667C30.3206 25.8092 29.7697 24.9188 28.9231 24.9188C28.4911 24.9188 28.0963 25.1632 27.9034 25.5498L26.3829 28.5992L24.8624 25.5498C24.6697 25.1632 24.2747 24.9188 23.8427 24.9188C22.9961 24.9188 22.4452 25.8092 22.8229 26.5667L24.8937 30.7193H24.1771C23.8478 30.7193 23.581 30.9863 23.581 31.3154V31.3375C23.581 31.6667 23.848 31.9335 24.1771 31.9335H27.861C27.6269 32.1174 27.3983 32.3076 27.1742 32.5032H24.1771C23.8478 32.5032 23.581 32.7702 23.581 33.0993C23.581 33.4286 23.848 33.6954 24.1771 33.6954H25.9401C25.7657 33.8815 25.5954 34.0714 25.4294 34.2651L25.2435 34.4848C23.8565 36.1604 22.7844 38.1055 22.1182 40.2285C18.3045 38.5229 15.6872 34.6071 15.9124 30.1178C16.1768 24.8499 20.3981 20.5501 25.6615 20.1957ZM55.2027 43.125C55.3161 43.1351 55.4291 43.141 55.5415 43.141C55.9621 43.141 56.386 43.0709 56.837 42.9268C56.866 42.9175 56.8949 42.908 56.9236 42.8983C57.4669 42.715 57.7299 42.0992 57.4933 41.577L57.3638 41.291C57.1549 40.8299 56.6336 40.5988 56.1516 40.7534L56.1441 40.7559C55.6967 40.8987 55.3871 40.8987 54.939 40.7559C54.8615 40.7312 54.781 40.7012 54.6991 40.6691C54.3292 39.3666 53.8066 38.1277 53.1534 36.972H54.18C54.5599 36.972 54.868 36.664 54.868 36.284C54.868 35.9041 54.5599 35.596 54.18 35.596H52.2865C51.8021 34.9029 51.2679 34.247 50.6884 33.6344C50.6872 33.632 50.6863 33.6295 50.6851 33.627C50.6247 32.3792 51.6225 31.3447 52.8573 31.3447C53.8006 31.3447 54.6055 31.9483 54.9061 32.7896C55.0647 33.2334 55.4978 33.5195 55.969 33.5195C56.7492 33.5195 57.3132 32.7478 57.0487 32.0137C56.43 30.2968 54.7846 29.0659 52.8572 29.0659C50.9884 29.0659 49.3859 30.2233 48.726 31.8585C47.2712 30.7328 45.6299 29.8375 43.8569 29.2277C46.061 26.5035 49.4924 24.8109 53.3032 25.0048C59.1626 25.303 63.8867 30.1056 64.0936 35.9688C64.2913 41.5722 60.4157 46.3213 55.2031 47.4896C55.295 46.7754 55.3425 46.0475 55.3425 45.3088C55.3427 44.5692 55.2948 43.8402 55.2027 43.125Z" fill="white"/>
<path d="M35.7744 48.8127C35.7744 48.1745 35.2569 47.6568 34.6185 47.6568C33.9802 47.6568 33.4626 48.1743 33.4626 48.8127C33.4626 51.1053 35.0522 53.0328 37.1868 53.5533V54.1744C37.1868 54.8127 37.7043 55.3303 38.3427 55.3303C38.9811 55.3303 39.4986 54.8129 39.4986 54.1744V53.5533C41.6332 53.0328 43.2228 51.1053 43.2228 48.8127C43.2228 46.5201 41.6332 44.5929 39.4986 44.0722V39.0738C40.3353 39.4976 40.9112 40.3641 40.9112 41.3643C40.9112 42.0025 41.4287 42.5202 42.0671 42.5202C42.7056 42.5202 43.223 42.0027 43.223 41.3643C43.223 39.0717 41.6334 37.1442 39.4988 36.6237V36.0026C39.4988 35.3643 38.9813 34.8467 38.3429 34.8467C37.7045 34.8467 37.187 35.3641 37.187 36.0026V36.6237C35.0524 37.1442 33.4628 39.0717 33.4628 41.3643C33.4628 43.6569 35.0524 45.5843 37.187 46.1048V51.1032C36.3503 50.6794 35.7744 49.8131 35.7744 48.8127ZM40.9112 48.8127C40.9112 49.8131 40.3353 50.6794 39.4986 51.1032V46.5222C40.3351 46.9461 40.9112 47.8125 40.9112 48.8127ZM35.7744 41.3643C35.7744 40.3641 36.3503 39.4976 37.187 39.0738V43.6548C36.3503 43.2309 35.7744 42.3646 35.7744 41.3643Z" fill="white"/>
</svg>
