<svg width="80" height="80" viewBox="0 0 80 80" fill="none" xmlns="http://www.w3.org/2000/svg">
<circle cx="40" cy="40" r="40" fill="#F5454E"/>
<path d="M54.1781 28.833H48.0629C44.8064 28.833 42.241 31.4931 42.241 34.6548V39.691C42.241 40.2873 42.6386 40.6755 43.2255 40.6755H59.0155C59.6119 40.6755 60 40.2779 60 39.691V34.6548C60 31.3984 57.3399 28.833 54.1781 28.833ZM58.0215 38.7065H44.2006V34.6643C44.2006 32.4965 45.9803 30.8115 48.0534 30.8115H54.1687C56.3365 30.8115 58.0215 32.5912 58.0215 34.6643V38.7065Z" fill="white"/>
<path d="M51.1205 26.864C53.8847 26.864 56.0525 24.6962 56.0525 21.932C56.0525 19.1678 53.8847 17 51.1205 17C48.3563 17 46.1791 19.1583 46.1791 21.9225C46.1791 24.6867 48.3563 26.864 51.1205 26.864ZM51.1205 18.969C52.7961 18.969 54.0835 20.2564 54.0835 21.932C54.0835 23.6075 52.7961 24.895 51.1205 24.895C49.445 24.895 48.1576 23.6075 48.1576 21.932C48.1576 20.2564 49.4355 18.969 51.1205 18.969Z" fill="white"/>
<path d="M30.9371 48.3022H24.8218C21.5654 48.3022 19 50.9623 19 54.1241V59.1602C19 59.7566 19.3976 60.1447 19.9845 60.1447H35.7745C36.3708 60.1447 36.759 59.7471 36.759 59.1602V54.1241C36.7684 50.8676 34.0989 48.3022 30.9371 48.3022ZM34.7899 58.1662H20.969V54.1241C20.969 51.9563 22.7487 50.2713 24.8218 50.2713H30.9371C33.1049 50.2713 34.7899 52.0509 34.7899 54.1241V58.1662Z" fill="white"/>
<path d="M27.8794 46.3239C30.6436 46.3239 32.8114 44.1561 32.8114 41.392C32.8114 38.6278 30.6436 36.46 27.8794 36.46C25.1153 36.46 22.9474 38.6278 22.9474 41.392C22.9474 44.1561 25.1153 46.3239 27.8794 46.3239ZM27.8794 38.429C29.555 38.429 30.8424 39.7164 30.8424 41.392C30.8424 43.0675 29.555 44.3549 27.8794 44.3549C26.2039 44.3549 24.9165 43.0675 24.9165 41.392C24.9165 39.7164 26.2039 38.429 27.8794 38.429Z" fill="white"/>
<path d="M38.5618 28.3545L41.6195 22.2392C41.8182 21.7469 41.6194 21.1505 41.1272 20.9518L35.0119 17.9888L34.1221 19.7685L37.9749 21.6239C37.9749 21.6239 29.919 24.4732 28.1014 33.2959L30.0799 33.5894C31.3389 26.5085 38.6375 23.555 38.6375 23.555L36.7916 27.4646L38.5618 28.3545Z" fill="white"/>
</svg>
