<svg width="52" height="63" viewBox="0 0 52 63" fill="none" xmlns="http://www.w3.org/2000/svg">
<path d="M13.4654 35.981C12.9541 35.9803 12.4639 35.7768 12.1024 35.4152C11.7409 35.0535 11.5376 34.5632 11.5371 34.0519C11.5377 33.5406 11.741 33.0503 12.1025 32.6887C12.4639 32.3271 12.954 32.1235 13.4654 32.1227H38.462C38.9735 32.1232 39.4639 32.3266 39.8256 32.6883C40.1873 33.05 40.3907 33.5404 40.3912 34.0519C40.3907 34.5634 40.1873 35.0538 39.8257 35.4154C39.464 35.7771 38.9736 35.9805 38.4621 35.981H13.4654ZM13.4654 26.8189C12.9541 26.8184 12.4638 26.615 12.1023 26.2534C11.7407 25.8918 11.5373 25.4016 11.5367 24.8902C11.5373 24.3789 11.7407 23.8886 12.1023 23.527C12.4638 23.1654 12.9541 22.9621 13.4654 22.9615H32.188C32.6992 22.9622 33.1892 23.1656 33.5507 23.5271C33.9122 23.8885 34.1155 24.3786 34.1162 24.8898C34.1156 25.4011 33.9123 25.8912 33.5508 26.2528C33.1894 26.6144 32.6993 26.8178 32.188 26.8185L13.4654 26.8189ZM13.4654 17.1593C12.9542 17.1586 12.4641 16.9552 12.1027 16.5937C11.7412 16.2322 11.5378 15.7422 11.5371 15.231C11.5378 14.7198 11.7412 14.2297 12.1027 13.8683C12.4641 13.5068 12.9542 13.3034 13.4654 13.3027H38.462C38.9733 13.3033 39.4634 13.5066 39.8249 13.8681C40.1864 14.2296 40.3898 14.7197 40.3903 15.231C40.3898 15.7422 40.1864 16.2323 39.825 16.5938C39.4635 16.9553 38.9733 17.1586 38.4621 17.1592H13.4654L13.4654 17.1593Z" fill="#F5454E"/>
<path d="M6.56101 62.5278C2.94308 62.5278 0 59.5843 0 55.9664V6.56109C0 2.94309 2.94308 0 6.56101 0H45.4389C49.0564 0 52 2.94358 52 6.56151V46.0303C51.999 46.5147 51.8355 46.9847 51.5358 47.3652L40.2229 61.7059C40.0219 61.9627 39.7649 62.1702 39.4716 62.3126C39.1783 62.455 38.8563 62.5286 38.5303 62.5278H6.56101ZM6.56059 4.31354C5.96523 4.31511 5.3947 4.55232 4.97372 4.9733C4.55273 5.39429 4.31553 5.96482 4.31395 6.56018V55.9664C4.31533 56.5619 4.55246 57.1325 4.97348 57.5536C5.3945 57.9747 5.96514 58.2119 6.56059 58.2134H34.9695V49.4097C34.9695 45.7921 37.9127 42.8486 41.5306 42.8486H47.686V6.56109C47.6844 5.96562 47.4472 5.39498 47.0261 4.9739C46.6051 4.55282 46.0345 4.31555 45.439 4.31395H6.56051L6.56059 4.31354ZM41.5302 47.1631C40.935 47.1645 40.3646 47.4015 39.9437 47.8224C39.5227 48.2432 39.2856 48.8136 39.284 49.4088V55.9321L46.2011 47.1631H41.5302Z" fill="#A2B6D4" fill-opacity="0.54"/>
</svg>
