<svg width="59" height="53" viewBox="0 0 59 53" fill="none" xmlns="http://www.w3.org/2000/svg">
<g clip-path="url(#clip0_260_41)">
<path d="M11.3266 0H47.6734C50.6739 0.0112846 53.5483 1.19799 55.6699 3.30145C57.7916 5.40491 58.9886 8.25458 59 11.2293V41.7707C59.0027 44.7438 57.8145 47.5963 55.6966 49.7012L55.591 49.7964C53.4831 51.8458 50.6498 52.9957 47.6974 53H11.3266C9.83989 52.999 8.36803 52.7071 6.99536 52.141C5.6227 51.5749 4.37622 50.7458 3.32739 49.7012L3.23136 49.5965C1.16119 47.5087 0.000785146 44.6984 0 41.7707L0 11.2293C0.00886643 8.25381 1.20505 5.4027 3.32727 3.2987C5.4495 1.1947 8.32531 0.00879028 11.3266 0ZM3.52905 12.6002H10.2511L14.6012 3.49874H11.3266C9.26049 3.50502 7.28084 4.3215 5.81989 5.7699C4.35894 7.21831 3.53538 9.18096 3.52905 11.2293V12.6002ZM17.7893 3.49874L13.444 12.6002H25.6204L29.9753 3.51302L17.7893 3.49874ZM33.1539 3.49874L28.7702 12.6002H40.6297L44.9894 3.49874H33.1539ZM48.192 3.49874L43.8179 12.6002H55.4709V11.2293C55.4623 9.2671 54.705 7.38085 53.3511 5.94948C51.9973 4.51811 50.1473 3.64767 48.1728 3.51302L48.192 3.49874ZM55.4902 16.1989H3.52905V41.7707C3.53703 43.7838 4.33824 45.7141 5.76172 47.1497L5.84334 47.2259C7.29408 48.6763 9.26627 49.4964 11.3266 49.506H47.6734C49.7006 49.5045 51.6471 48.7189 53.099 47.3163L53.1759 47.2306C53.9021 46.5161 54.4787 45.6664 54.8726 44.7302C55.2665 43.794 55.4698 42.7898 55.4709 41.7755V16.2132L55.4902 16.1989Z" fill="#CDD7E7"/>
<path d="M38.0514 31.1126L25.9278 22.7204C25.6564 22.523 25.3348 22.4045 24.9993 22.3782C24.6637 22.352 24.3274 22.419 24.0281 22.5718C23.7289 22.7246 23.4785 22.9571 23.3052 23.2432C23.1318 23.5293 23.0424 23.8576 23.0469 24.1913V40.9996C23.0469 41.2377 23.0945 41.4735 23.1868 41.6933C23.2792 41.9131 23.4145 42.1126 23.585 42.2803C23.7555 42.4481 23.9578 42.5806 24.1803 42.6705C24.4027 42.7603 24.6409 42.8056 24.8811 42.8037C25.3022 42.8035 25.71 42.6569 26.0334 42.3895L38.1186 34.1116C38.3636 33.9413 38.5624 33.7137 38.6975 33.4491C38.8326 33.1844 38.8998 32.8908 38.8932 32.5943C38.8865 32.2978 38.8063 32.0074 38.6594 31.749C38.5126 31.4905 38.3037 31.272 38.0514 31.1126Z" fill="#F5454E"/>
</g>
<defs>
<clipPath id="clip0_260_41">
<rect width="59" height="53" fill="white"/>
</clipPath>
</defs>
</svg>
