<svg width="57" height="57" viewBox="0 0 57 57" fill="none" xmlns="http://www.w3.org/2000/svg">
<path d="M28.5001 0C12.7606 0 0.00012207 12.7604 0.00012207 28.5C0.00012207 44.2396 12.7606 57 28.5001 57C44.2397 57 57.0001 44.2396 57.0001 28.5C57.0001 12.7604 44.2397 0 28.5001 0ZM19.1721 4.63225C16.3962 7.65136 14.1979 11.9938 12.8536 17.1001H5.53859C8.36966 11.438 13.2336 6.96068 19.1721 4.63225ZM2.85012 28.5C2.85012 25.4943 3.41534 22.63 4.37109 19.95H12.2191C11.7061 22.6546 11.4001 25.5123 11.4001 28.5C11.4001 31.4877 11.7061 34.3454 12.2181 37.05H4.37109C3.41534 34.37 2.85012 31.5059 2.85012 28.5ZM5.53859 39.9H12.8536C14.1988 45.0063 16.3962 49.3486 19.1721 52.3677C13.2336 50.0393 8.36966 45.562 5.53859 39.9ZM27.0751 54.0151C22.1978 53.0964 17.9599 47.5313 15.791 39.9H27.0751V54.0151ZM27.0751 37.05H15.1118C14.5636 34.3596 14.2501 31.4839 14.2501 28.5C14.2501 25.5161 14.5636 22.6404 15.1118 19.95H27.0751V37.05ZM27.0751 17.1H15.791C17.9599 9.46868 22.1978 3.9035 27.0751 2.98493V17.1ZM51.4617 17.1H44.1466C42.8014 11.9937 40.604 7.65125 37.8282 4.63214C43.7667 6.96068 48.6306 11.438 51.4617 17.1ZM29.9251 2.98493C34.8024 3.90361 39.0403 9.46868 41.2092 17.1H29.9251V2.98493ZM29.9251 19.95H41.8884C42.4366 22.6404 42.7501 25.5161 42.7501 28.5C42.7501 31.4839 42.4366 34.3596 41.8884 37.05H29.9251V19.95ZM29.9251 54.0151V39.9H41.2092C39.0403 47.5313 34.8024 53.0965 29.9251 54.0151ZM37.8282 52.3677C40.604 49.3478 42.8014 45.0062 44.1466 39.9H51.4617C48.6306 45.562 43.7667 50.0393 37.8282 52.3677ZM44.7812 37.05C45.2942 34.3454 45.6001 31.4877 45.6001 28.5C45.6001 25.5123 45.2942 22.6546 44.7822 19.95H52.6302C53.5849 22.63 54.1501 25.4943 54.1501 28.5C54.1501 31.5059 53.5849 34.37 52.6292 37.05H44.7812Z" fill="#CDD7E7"/>
<g clip-path="url(#clip0_260_278)">
<path d="M28.5001 0C12.7606 0 0.00012207 12.7604 0.00012207 28.5C0.00012207 44.2396 12.7606 57 28.5001 57C44.2397 57 57.0001 44.2396 57.0001 28.5C57.0001 12.7604 44.2397 0 28.5001 0ZM19.1721 4.63225C16.3962 7.65136 14.1979 11.9938 12.8536 17.1001H5.53859C8.36966 11.438 13.2336 6.96068 19.1721 4.63225ZM2.85012 28.5C2.85012 25.4943 3.41534 22.63 4.37109 19.95H12.2191C11.7061 22.6546 11.4001 25.5123 11.4001 28.5C11.4001 31.4877 11.7061 34.3454 12.2181 37.05H4.37109C3.41534 34.37 2.85012 31.5059 2.85012 28.5ZM5.53859 39.9H12.8536C14.1988 45.0063 16.3962 49.3486 19.1721 52.3677C13.2336 50.0393 8.36966 45.562 5.53859 39.9ZM27.0751 54.0151C22.1978 53.0964 17.9599 47.5313 15.791 39.9H27.0751V54.0151ZM27.0751 37.05H15.1118C14.5636 34.3596 14.2501 31.4839 14.2501 28.5C14.2501 25.5161 14.5636 22.6404 15.1118 19.95H27.0751V37.05ZM27.0751 17.1H15.791C17.9599 9.46868 22.1978 3.9035 27.0751 2.98493V17.1ZM51.4617 17.1H44.1466C42.8014 11.9937 40.604 7.65125 37.8282 4.63214C43.7667 6.96068 48.6306 11.438 51.4617 17.1ZM29.9251 2.98493C34.8024 3.90361 39.0403 9.46868 41.2092 17.1H29.9251V2.98493ZM29.9251 19.95H41.8884C42.4366 22.6404 42.7501 25.5161 42.7501 28.5C42.7501 31.4839 42.4366 34.3596 41.8884 37.05H29.9251V19.95ZM29.9251 54.0151V39.9H41.2092C39.0403 47.5313 34.8024 53.0965 29.9251 54.0151ZM37.8282 52.3677C40.604 49.3478 42.8014 45.0062 44.1466 39.9H51.4617C48.6306 45.562 43.7667 50.0393 37.8282 52.3677ZM44.7812 37.05C45.2942 34.3454 45.6001 31.4877 45.6001 28.5C45.6001 25.5123 45.2942 22.6546 44.7822 19.95H52.6302C53.5849 22.63 54.1501 25.4943 54.1501 28.5C54.1501 31.5059 53.5849 34.37 52.6292 37.05H44.7812Z" fill="#F5454E"/>
</g>
<defs>
<clipPath id="clip0_260_278">
<rect width="57" height="22" fill="white" transform="translate(0.00012207 17)"/>
</clipPath>
</defs>
</svg>
