<svg width="87" height="18" viewBox="0 0 87 18" fill="none" xmlns="http://www.w3.org/2000/svg">
<path d="M8.22837 2.10301C8.41328 1.5339 9.21842 1.5339 9.40333 2.10301L10.6188 5.84372C10.7015 6.09824 10.9386 6.27056 11.2062 6.27056L15.1395 6.27056C15.7379 6.27056 15.9867 7.03629 15.5026 7.38801L12.3205 9.69991C12.104 9.8572 12.0134 10.136 12.0961 10.3905L13.3115 14.1313C13.4965 14.7004 12.8451 15.1736 12.361 14.8219L9.17893 12.51C8.96243 12.3527 8.66927 12.3527 8.45277 12.51L5.27072 14.8219C4.78661 15.1736 4.13524 14.7004 4.32015 14.1312L5.53559 10.3905C5.61828 10.136 5.52769 9.8572 5.31119 9.69991L2.12914 7.38801C1.64503 7.03628 1.89383 6.27056 2.49223 6.27056L6.42545 6.27056C6.69306 6.27056 6.93024 6.09824 7.01293 5.84372L8.22837 2.10301Z" fill="#F7871B"/>
<path d="M25.5244 2.10301C25.7093 1.5339 26.5145 1.5339 26.6994 2.10301L27.9148 5.84372C27.9975 6.09824 28.2347 6.27056 28.5023 6.27056L32.4355 6.27056C33.0339 6.27056 33.2827 7.03629 32.7986 7.38801L29.6165 9.69991C29.4 9.8572 29.3095 10.136 29.3921 10.3905L30.6076 14.1313C30.7925 14.7004 30.1411 15.1736 29.657 14.8219L26.475 12.51C26.2585 12.3527 25.9653 12.3527 25.7488 12.51L22.5668 14.8219C22.0826 15.1736 21.4313 14.7004 21.6162 14.1312L22.8316 10.3905C22.9143 10.136 22.8237 9.8572 22.6072 9.69991L19.4252 7.38801C18.9411 7.03628 19.1899 6.27056 19.7883 6.27056L23.7215 6.27056C23.9891 6.27056 24.2263 6.09824 24.309 5.84372L25.5244 2.10301Z" fill="#F7871B"/>
<path d="M42.8204 2.10301C43.0054 1.5339 43.8105 1.5339 43.9954 2.10301L45.2108 5.84372C45.2935 6.09824 45.5307 6.27056 45.7983 6.27056L49.7315 6.27056C50.3299 6.27056 50.5787 7.03629 50.0946 7.38801L46.9126 9.69991C46.6961 9.8572 46.6055 10.136 46.6882 10.3905L47.9036 14.1313C48.0885 14.7004 47.4372 15.1736 46.9531 14.8219L43.771 12.51C43.5545 12.3527 43.2613 12.3527 43.0448 12.51L39.8628 14.8219C39.3787 15.1736 38.7273 14.7004 38.9122 14.1312L40.1277 10.3905C40.2104 10.136 40.1198 9.8572 39.9033 9.69991L36.7212 7.38801C36.2371 7.03628 36.4859 6.27056 37.0843 6.27056L41.0175 6.27056C41.2851 6.27056 41.5223 6.09824 41.605 5.84372L42.8204 2.10301Z" fill="#F7871B"/>
<path d="M60.1165 2.10301C60.3014 1.5339 61.1065 1.5339 61.2914 2.10301L62.5069 5.84372C62.5896 6.09824 62.8267 6.27056 63.0944 6.27056L67.0276 6.27056C67.626 6.27056 67.8748 7.03629 67.3907 7.38801L64.2086 9.69991C63.9921 9.8572 63.9015 10.136 63.9842 10.3905L65.1997 14.1313C65.3846 14.7004 64.7332 15.1736 64.2491 14.8219L61.067 12.51C60.8505 12.3527 60.5574 12.3527 60.3409 12.51L57.1588 14.8219C56.6747 15.1736 56.0233 14.7004 56.2083 14.1312L57.4237 10.3905C57.5064 10.136 57.4158 9.8572 57.1993 9.69991L54.0173 7.38801C53.5331 7.03628 53.7819 6.27056 54.3803 6.27056L58.3136 6.27056C58.5812 6.27056 58.8183 6.09824 58.901 5.84372L60.1165 2.10301Z" fill="#F7871B"/>
<path d="M77.4125 2.10301C77.5974 1.5339 78.4026 1.5339 78.5875 2.10301L79.8029 5.84372C79.8856 6.09824 80.1228 6.27056 80.3904 6.27056L84.3236 6.27056C84.922 6.27056 85.1708 7.03629 84.6867 7.38801L81.5047 9.69991C81.2882 9.8572 81.1976 10.136 81.2803 10.3905L82.4957 14.1313C82.6806 14.7004 82.0293 15.1736 81.5451 14.8219L78.3631 12.51C78.1466 12.3527 77.8534 12.3527 77.6369 12.51L74.4549 14.8219C73.9708 15.1736 73.3194 14.7004 73.5043 14.1312L74.7197 10.3905C74.8024 10.136 74.7118 9.8572 74.4953 9.69991L71.3133 7.38801C70.8292 7.03628 71.078 6.27056 71.6764 6.27056L75.6096 6.27056C75.8772 6.27056 76.1144 6.09824 76.1971 5.84372L77.4125 2.10301Z" fill="#F7871B" fill-opacity="0.2"/>
</svg>
