<svg width="106" height="22" viewBox="0 0 106 22" fill="none" xmlns="http://www.w3.org/2000/svg">
<path d="M9.87991 2.3617C10.1066 1.66414 11.0934 1.66414 11.3201 2.3617L12.8099 6.94675C12.9112 7.25871 13.2019 7.46993 13.5299 7.46993L18.351 7.46993C19.0844 7.46993 19.3894 8.40849 18.796 8.83961L14.8957 11.6733C14.6303 11.8661 14.5193 12.2079 14.6207 12.5198L16.1104 17.1049C16.3371 17.8025 15.5387 18.3825 14.9453 17.9514L11.045 15.1177C10.7797 14.9249 10.4203 14.9249 10.155 15.1177L6.25468 17.9514C5.6613 18.3825 4.86291 17.8025 5.08956 17.1049L6.57933 12.5198C6.6807 12.2079 6.56966 11.8661 6.30429 11.6733L2.40401 8.83961C1.81063 8.40849 2.11558 7.46993 2.84905 7.46993L7.67005 7.46993C7.99807 7.46993 8.28878 7.25871 8.39014 6.94675L9.87991 2.3617Z" fill="white"/>
<path d="M31.0799 2.3617C31.3066 1.66414 32.2934 1.66414 32.5201 2.3617L34.0099 6.94675C34.1112 7.25871 34.4019 7.46993 34.73 7.46993L39.551 7.46993C40.2844 7.46993 40.5894 8.40849 39.996 8.83961L36.0957 11.6733C35.8304 11.8661 35.7193 12.2079 35.8207 12.5198L37.3104 17.1049C37.5371 17.8025 36.7387 18.3825 36.1453 17.9514L32.245 15.1177C31.9797 14.9249 31.6203 14.9249 31.355 15.1177L27.4547 17.9514C26.8613 18.3825 26.0629 17.8025 26.2896 17.1049L27.7793 12.5198C27.8807 12.2079 27.7697 11.8661 27.5043 11.6733L23.604 8.83961C23.0106 8.40849 23.3156 7.46993 24.0491 7.46993L28.8701 7.46993C29.1981 7.46993 29.4888 7.25871 29.5902 6.94675L31.0799 2.3617Z" fill="white"/>
<path d="M52.2799 2.3617C52.5066 1.66414 53.4935 1.66414 53.7201 2.3617L55.2099 6.94675C55.3112 7.25871 55.602 7.46993 55.93 7.46993L60.751 7.46993C61.4844 7.46993 61.7894 8.40849 61.196 8.83961L57.2957 11.6733C57.0304 11.8661 56.9193 12.2079 57.0207 12.5198L58.5105 17.1049C58.7371 17.8025 57.9387 18.3825 57.3453 17.9514L53.4451 15.1177C53.1797 14.9249 52.8204 14.9249 52.555 15.1177L48.6547 17.9514C48.0613 18.3825 47.2629 17.8025 47.4896 17.1049L48.9794 12.5198C49.0807 12.2079 48.9697 11.8661 48.7043 11.6733L44.804 8.83961C44.2106 8.40849 44.5156 7.46993 45.2491 7.46993L50.0701 7.46993C50.3981 7.46993 50.6888 7.25871 50.7902 6.94675L52.2799 2.3617Z" fill="white"/>
<path d="M73.4799 2.3617C73.7065 1.66414 74.6934 1.66414 74.9201 2.3617L76.4098 6.94675C76.5112 7.25871 76.8019 7.46993 77.1299 7.46993L81.9509 7.46993C82.6844 7.46993 82.9893 8.40849 82.396 8.83961L78.4957 11.6733C78.2303 11.8661 78.1193 12.2079 78.2206 12.5198L79.7104 17.1049C79.9371 17.8025 79.1387 18.3825 78.5453 17.9514L74.645 15.1177C74.3796 14.9249 74.0203 14.9249 73.7549 15.1177L69.8547 17.9514C69.2613 18.3825 68.4629 17.8025 68.6895 17.1049L70.1793 12.5198C70.2807 12.2079 70.1696 11.8661 69.9043 11.6733L66.004 8.83961C65.4106 8.40849 65.7156 7.46993 66.449 7.46993L71.27 7.46993C71.598 7.46993 71.8888 7.25871 71.9901 6.94675L73.4799 2.3617Z" fill="white"/>
<path d="M94.6799 2.3617C94.9066 1.66414 95.8934 1.66414 96.1201 2.3617L97.6098 6.94675C97.7112 7.25871 98.0019 7.46993 98.3299 7.46993L103.151 7.46993C103.884 7.46993 104.189 8.40849 103.596 8.83961L99.6957 11.6733C99.4303 11.8661 99.3193 12.2079 99.4207 12.5198L100.91 17.1049C101.137 17.8025 100.339 18.3825 99.7453 17.9514L95.845 15.1177C95.5797 14.9249 95.2203 14.9249 94.9549 15.1177L91.0547 17.9514C90.4613 18.3825 89.6629 17.8025 89.8895 17.1049L91.3793 12.5198C91.4807 12.2079 91.3696 11.8661 91.1043 11.6733L87.204 8.83961C86.6106 8.40849 86.9156 7.46993 87.649 7.46993L92.47 7.46993C92.7981 7.46993 93.0888 7.25871 93.1901 6.94675L94.6799 2.3617Z" fill="white" fill-opacity="0.2"/>
</svg>
