<svg width="80" height="65" viewBox="0 0 80 65" fill="none" xmlns="http://www.w3.org/2000/svg">
<path d="M15.0171 32.995C6.04572 32.995 0 39.3485 0 48.7623C0 57.2336 6.94858 64.291 16.36 64.291C26.6686 64.291 34.2857 55.8197 34.2857 42.8801C34.2857 13.4692 13.2229 1.70483 0 0.291016V13.2307C8.96571 14.8772 19.0457 24.0525 19.4971 34.1761C19.0457 33.9434 17.2571 32.995 15.0171 32.995ZM60.7257 32.995C51.7657 32.995 45.7143 39.3485 45.7143 48.7623C45.7143 57.2336 52.6629 64.291 62.0743 64.291C72.3829 64.291 80 55.8197 80 42.8801C80 13.4692 58.9371 1.70483 45.7143 0.291016V13.2307C54.68 14.8772 64.76 24.0525 65.2114 34.1761C64.76 33.9434 62.9714 32.995 60.7257 32.995Z" fill="#F5454E"/>
</svg>
