<svg width="101" height="80" viewBox="0 0 101 80" fill="none" xmlns="http://www.w3.org/2000/svg">
<path d="M81.4683 40.6638C92.5892 40.6638 100.083 48.5395 100.083 60.2087C100.083 70.7095 91.47 79.4578 79.8038 79.4578C67.0254 79.4578 57.5834 68.957 57.5834 52.9172C57.5834 16.46 83.6925 1.87706 100.083 0.124512V16.1643C88.9696 18.2053 76.4746 29.5788 75.915 42.1279C76.4746 41.8394 78.6917 40.6638 81.4683 40.6638ZM24.8088 40.6638C35.9154 40.6638 43.4167 48.5395 43.4167 60.2087C43.4167 70.7095 34.8034 79.4578 23.1371 79.4578C10.3588 79.4578 0.916687 68.957 0.916687 52.9172C0.916687 16.46 27.0259 1.87706 43.4167 0.124512V16.1643C32.3029 18.2053 19.8079 29.5788 19.2484 42.1279C19.8079 41.8394 22.025 40.6638 24.8088 40.6638Z" fill="#F5454E"/>
</svg>
