<svg width="49" height="48" viewBox="0 0 49 48" fill="none" xmlns="http://www.w3.org/2000/svg">
<circle cx="24.673" cy="23.9542" r="23.9542" fill="white"/>
<path d="M24.2527 28.4838C26.522 28.4838 28.3618 26.6441 28.3618 24.3747C28.3618 22.1053 26.522 20.2656 24.2527 20.2656C21.9833 20.2656 20.1436 22.1053 20.1436 24.3747C20.1436 26.6441 21.9833 28.4838 24.2527 28.4838Z" stroke="#737791" stroke-linecap="round" stroke-linejoin="round"/>
<path d="M15.0068 28.4835V20.2653C15.0068 17.4285 17.3065 15.1289 20.1432 15.1289H28.3614C31.1982 15.1289 33.4978 17.4285 33.4978 20.2653V28.4835C33.4978 31.3202 31.1982 33.6199 28.3614 33.6199H20.1432C17.3065 33.6199 15.0068 31.3202 15.0068 28.4835Z" stroke="#737791"/>
<path d="M29.9023 18.7359L29.9134 18.7236" stroke="#737791" stroke-width="2.5" stroke-linecap="round" stroke-linejoin="round"/>
</svg>
