<svg width="50" height="48" viewBox="0 0 50 48" fill="none" xmlns="http://www.w3.org/2000/svg">
<ellipse cx="24.9712" cy="23.9542" rx="24.3745" ry="23.9542" fill="white"/>
<path d="M35.8969 15.1389C35.8969 15.1389 33.8925 16.323 32.7779 16.6587C32.1796 15.9708 31.3846 15.4833 30.5002 15.262C29.6159 15.0407 28.6849 15.0964 27.8333 15.4214C26.9816 15.7465 26.2502 16.3253 25.7383 17.0796C25.2262 17.8338 24.9582 18.7271 24.9704 19.6386V20.6319C23.2248 20.6772 21.4951 20.2901 19.9353 19.505C18.3755 18.7199 17.0341 17.5612 16.0306 16.1322C16.0306 16.1322 12.0573 25.0721 20.9972 29.0454C18.9515 30.4339 16.5145 31.1303 14.0439 31.032C22.9838 35.9986 33.9103 31.032 33.9103 19.6088C33.9094 19.3321 33.8828 19.0561 33.8308 18.7844C34.8446 17.7846 35.8969 15.1389 35.8969 15.1389Z" stroke="#737791" stroke-linecap="round" stroke-linejoin="round"/>
</svg>
