<svg width="49" height="48" viewBox="0 0 49 48" fill="none" xmlns="http://www.w3.org/2000/svg">
<ellipse cx="24.3706" cy="23.9542" rx="24.3745" ry="23.9542" fill="white"/>
<path d="M27.0602 24.0262L23.0889 26.2955V21.7568L27.0602 24.0262Z" fill="#484848" stroke="#737791" stroke-width="2.5" stroke-linecap="round" stroke-linejoin="round"/>
<path d="M13.4434 24.8288V23.2231C13.4434 19.9379 13.4434 18.2952 14.4708 17.2383C15.4982 16.1814 17.1158 16.1356 20.3509 16.0441C21.8839 16.0008 23.4498 15.9697 24.7901 15.9697C26.1304 15.9697 27.6963 16.0008 29.2293 16.0441C32.4644 16.1356 34.0819 16.1814 35.1094 17.2383C36.1368 18.2952 36.1368 19.9379 36.1368 23.2231V24.8288C36.1368 28.114 36.1368 29.7567 35.1094 30.8135C34.0819 31.8705 32.4645 31.9162 29.2294 32.0078C27.6963 32.0511 26.1304 32.0822 24.7901 32.0822C23.4498 32.0822 21.8838 32.0511 20.3508 32.0078C17.1157 31.9162 15.4982 31.8705 14.4708 30.8135C13.4434 29.7567 13.4434 28.114 13.4434 24.8288Z" stroke="#737791"/>
</svg>
