<svg width="23" height="24" viewBox="0 0 23 24" fill="none" xmlns="http://www.w3.org/2000/svg">
<g clip-path="url(#clip0_115_429)">
<path d="M18.2164 9.87435H17.6333V6.15372C17.6333 5.03477 16.7229 4.12435 15.604 4.12435H15.5553L15.2927 3.66703C15.0466 3.23808 14.9167 2.7593 14.9167 2.28205C14.9167 1.18418 13.9173 0.291016 12.6887 0.291016H8.77796C7.54938 0.291016 6.54964 1.18418 6.54964 2.28167C6.54964 2.75892 6.41931 3.2377 6.17359 3.66665L5.91139 4.12435H5.86271C4.74376 4.12435 3.83334 5.03477 3.83334 6.15372V17.4283C3.83334 18.5473 4.74376 19.4577 5.86271 19.4577H5.91139L6.17398 19.915C6.42008 20.3439 6.55003 20.8227 6.55003 21.3C6.55003 22.3975 7.54938 23.2906 8.77834 23.2906H12.6887C13.9173 23.2906 14.917 22.3975 14.917 21.3C14.917 20.8227 15.0474 20.3439 15.2931 19.915L15.5553 19.4577H15.604C16.7229 19.4577 17.6333 18.5473 17.6333 17.4283V13.7077H18.2164C18.7404 13.7077 19.1667 13.2814 19.1667 12.7574V10.8242C19.1667 10.3006 18.7404 9.87435 18.2164 9.87435ZM16.8667 17.4283C16.8667 18.1244 16.3001 18.691 15.604 18.691H5.86271C5.16658 18.691 4.60001 18.1244 4.60001 17.4283V6.15372C4.60001 5.45758 5.16658 4.89102 5.86271 4.89102H15.604C16.3001 4.89102 16.8667 5.45758 16.8667 6.15372V9.87435V13.7077V17.4283Z" fill="#737791"/>
<path d="M6.13334 8.34111C6.23147 8.34111 6.3296 8.30354 6.40435 8.22879L7.93769 6.69546C8.08757 6.54558 8.08757 6.30331 7.93769 6.15343C7.7878 6.00354 7.54554 6.00354 7.39565 6.15343L5.86232 7.68676C5.71244 7.83664 5.71244 8.07891 5.86232 8.22879C5.93707 8.30354 6.0352 8.34111 6.13334 8.34111Z" fill="#737791"/>
<path d="M6.13334 10.2576C6.23147 10.2576 6.3296 10.22 6.40435 10.1452L7.17102 9.37857C7.3209 9.22868 7.3209 8.98642 7.17102 8.83653C7.02114 8.68665 6.77887 8.68665 6.62899 8.83653L5.86232 9.6032C5.71244 9.75308 5.71244 9.99535 5.86232 10.1452C5.93707 10.22 6.0352 10.2576 6.13334 10.2576Z" fill="#737791"/>
<path d="M7.39452 8.06878C7.32514 8.14123 7.28336 8.23706 7.28336 8.34094C7.28336 8.44444 7.32514 8.54028 7.39452 8.60928C7.46697 8.68211 7.56281 8.72428 7.66669 8.72428C7.77019 8.72428 7.86602 8.68211 7.93886 8.61311C8.00786 8.54028 8.05002 8.44061 8.05002 8.34094C8.05002 8.24128 8.00786 8.14123 7.93886 8.06878C7.79319 7.92694 7.53636 7.92694 7.39452 8.06878Z" fill="#737791"/>
<path d="M8.16234 7.84546C8.23709 7.92021 8.33522 7.95778 8.43336 7.95778C8.53149 7.95778 8.62962 7.92021 8.70437 7.84546L9.85437 6.69546C10.0043 6.54558 10.0043 6.30331 9.85437 6.15343C9.70449 6.00354 9.46222 6.00354 9.31234 6.15343L8.16234 7.30343C8.01246 7.45331 8.01246 7.69558 8.16234 7.84546Z" fill="#737791"/>
<path d="M9.31232 8.06993L5.86232 11.5199C5.71244 11.6698 5.71244 11.9121 5.86232 12.062C5.93707 12.1367 6.0352 12.1743 6.13334 12.1743C6.23147 12.1743 6.3296 12.1367 6.40435 12.062L9.85435 8.61197C10.0042 8.46208 10.0042 8.21982 9.85435 8.06993C9.70447 7.92005 9.4622 7.92005 9.31232 8.06993Z" fill="#737791"/>
<path d="M10.0817 7.30218C10.0085 7.37118 9.96667 7.47046 9.96667 7.57434C9.96667 7.67784 10.0085 7.77368 10.0778 7.84651C10.1503 7.91551 10.2503 7.95768 10.35 7.95768C10.4497 7.95768 10.5493 7.91551 10.6222 7.84651C10.6912 7.77368 10.7333 7.67401 10.7333 7.57434C10.7333 7.47468 10.6912 7.37463 10.6222 7.30218C10.4765 7.16034 10.2197 7.16034 10.0817 7.30218Z" fill="#737791"/>
<path d="M11.229 6.15343L10.8457 6.53676C10.6958 6.68664 10.6958 6.92891 10.8457 7.0788C10.9204 7.15355 11.0185 7.19111 11.1167 7.19111C11.2148 7.19111 11.3129 7.15355 11.3877 7.0788L11.771 6.69546C11.9209 6.54558 11.9209 6.30331 11.771 6.15343C11.6211 6.00354 11.3789 6.00354 11.229 6.15343Z" fill="#737791"/>
</g>
<defs>
<clipPath id="clip0_115_429">
<rect width="23" height="23" fill="white" transform="translate(0 0.291016)"/>
</clipPath>
</defs>
</svg>
