<svg width="62" height="58" viewBox="0 0 62 58" fill="none" xmlns="http://www.w3.org/2000/svg">
<path fill-rule="evenodd" clip-rule="evenodd" d="M55.1366 9.98328L61.2971 15.0131C61.6876 15.3331 61.9365 15.7961 61.9894 16.3008C62.0424 16.8055 61.8951 17.3108 61.5797 17.7062L58.8249 21.1426L49.7128 13.7098L52.4726 10.2684C52.7913 9.87674 53.2499 9.62731 53.7493 9.57397C54.2487 9.52063 54.7488 9.66765 55.1417 9.98328H55.1366ZM10.6308 15.6851C10.2052 15.6851 9.79713 15.5145 9.49624 15.2109C9.19534 14.9073 9.0263 14.4956 9.0263 14.0662C9.0263 13.6368 9.19534 13.2251 9.49624 12.9214C9.79713 12.6178 10.2052 12.4473 10.6308 12.4473H37.3969C37.8224 12.4473 38.2305 12.6178 38.5314 12.9214C38.8323 13.2251 39.0013 13.6368 39.0013 14.0662C39.0013 14.4956 38.8323 14.9073 38.5314 15.2109C38.2305 15.5145 37.8224 15.6851 37.3969 15.6851H10.6308ZM4.78813 0H43.2445C44.5128 0.00536 45.7276 0.516089 46.6244 1.42097C47.5212 2.32585 48.0273 3.55159 48.0326 4.83128V7.69746L45.7723 10.5127C45.5396 10.8032 45.3399 11.1191 45.1769 11.4546C45.0558 11.5513 44.9347 11.6582 44.8187 11.7702V4.83128C44.8174 4.40996 44.6513 4.0062 44.3565 3.7078C44.0617 3.4094 43.6621 3.2405 43.2445 3.23782H4.78813C4.3697 3.23916 3.96879 3.40748 3.67292 3.70602C3.37704 4.00456 3.21023 4.40908 3.2089 4.83128V52.2073C3.21141 52.6292 3.37811 53.0333 3.67309 53.3324C3.81907 53.4809 3.99277 53.5988 4.18416 53.6792C4.37554 53.7596 4.58082 53.8009 4.78813 53.8008H43.2445C43.4517 53.8008 43.6568 53.7595 43.8481 53.6794C44.0394 53.5992 44.2132 53.4818 44.3594 53.3337C44.5057 53.1857 44.6215 53.01 44.7003 52.8167C44.7791 52.6234 44.8194 52.4163 44.8187 52.2073V44.9018L45.7824 44.4895C46.6422 44.1689 47.3992 43.618 47.9721 42.896L48.0326 42.8248V52.2073C48.0207 53.483 47.5118 54.7028 46.6159 55.603C45.7199 56.5032 44.5089 57.0116 43.2445 57.0182H4.78813C3.52254 57.0156 2.30924 56.5085 1.41244 55.6074C0.515646 54.7064 0.00798207 53.4843 0 52.2073L0 4.83128C0.00531213 3.55159 0.51148 2.32585 1.40828 1.42097C2.30508 0.516089 3.51987 0.00536 4.78813 0ZM10.6308 44.5964C10.2201 44.5732 9.83389 44.3922 9.55133 44.0907C9.26878 43.7892 9.11134 43.3899 9.11134 42.9749C9.11134 42.56 9.26878 42.1607 9.55133 41.8592C9.83389 41.5577 10.2201 41.3767 10.6308 41.3535H28.3504C28.2078 42.4281 28.1571 43.513 28.199 44.5964H10.6308ZM10.6308 34.9593C10.2201 34.9361 9.83389 34.7551 9.55133 34.4536C9.26878 34.1521 9.11134 33.7528 9.11134 33.3378C9.11134 32.9229 9.26878 32.5236 9.55133 32.2221C9.83389 31.9206 10.2201 31.7396 10.6308 31.7164H29.8791V31.8538L29.3494 34.9593H10.6308ZM10.6308 25.3222C10.2052 25.3222 9.79713 25.1516 9.49624 24.848C9.19534 24.5444 9.0263 24.1327 9.0263 23.7033C9.0263 23.2739 9.19534 22.8622 9.49624 22.5585C9.79713 22.2549 10.2052 22.0844 10.6308 22.0844H36.5492L33.971 25.3222H10.6308ZM44.0215 39.7091L37.5533 42.4938C32.8358 44.2604 33.0477 45.2582 33.5169 40.5338L34.9347 32.2764L48.3354 15.4764L57.4172 22.9091L44.0316 39.7091H44.0215ZM36.4836 33.544L42.4675 38.4262L38.2193 40.2589C34.8893 41.6997 34.9801 42.4124 35.5603 38.9709L36.4836 33.544Z" fill="#CDD7E7"/>
<path fill-rule="evenodd" clip-rule="evenodd" d="M54.79 9.984L60.9505 15.0138C61.3409 15.3338 61.5899 15.7968 61.6428 16.3015C61.6958 16.8062 61.5484 17.3115 61.2331 17.7069L58.4782 21.1433L49.3662 13.7106L52.126 10.2691C52.4447 9.87746 52.9033 9.62803 53.4027 9.57469C53.9021 9.52135 54.4022 9.66837 54.7951 9.984H54.79ZM10.2841 15.6858C9.85861 15.6858 9.45051 15.5153 9.14962 15.2117C8.84873 14.9081 8.67969 14.4963 8.67969 14.0669C8.67969 13.6376 8.84873 13.2258 9.14962 12.9222C9.45051 12.6186 9.85861 12.448 10.2841 12.448H37.0502C37.4758 12.448 37.8839 12.6186 38.1848 12.9222C38.4856 13.2258 38.6547 13.6376 38.6547 14.0669C38.6547 14.4963 38.4856 14.9081 38.1848 15.2117C37.8839 15.5153 37.4758 15.6858 37.0502 15.6858H10.2841ZM10.2841 44.5971C9.87351 44.5739 9.48728 44.3929 9.20472 44.0914C8.92216 43.7899 8.76472 43.3906 8.76472 42.9757C8.76472 42.5607 8.92216 42.1614 9.20472 41.8599C9.48728 41.5584 9.87351 41.3774 10.2841 41.3542H28.0037C27.8611 42.4288 27.8105 43.5138 27.8524 44.5971H10.2841ZM10.2841 34.96C9.87351 34.9368 9.48728 34.7558 9.20472 34.4543C8.92216 34.1528 8.76472 33.7535 8.76472 33.3386C8.76472 32.9236 8.92216 32.5243 9.20472 32.2228C9.48728 31.9213 9.87351 31.7403 10.2841 31.7171H29.5325V31.8546L29.0027 34.96H10.2841ZM10.2841 25.3229C9.85861 25.3229 9.45051 25.1524 9.14962 24.8488C8.84873 24.5451 8.67969 24.1334 8.67969 23.704C8.67969 23.2747 8.84873 22.8629 9.14962 22.5593C9.45051 22.2557 9.85861 22.0851 10.2841 22.0851H36.2026L33.6244 25.3229H10.2841ZM43.6749 39.7098L37.2066 42.4946C32.4892 44.2611 32.7011 45.2589 33.1703 40.5346L34.5881 32.2771L47.9888 15.4771L57.0706 22.9098L43.685 39.7098H43.6749ZM36.137 33.5447L42.1209 38.4269L37.8726 40.2597C34.5426 41.7004 34.6335 42.4131 35.2137 38.9717L36.137 33.5447Z" fill="#F5454E"/>
</svg>
