<svg width="58" height="58" viewBox="0 0 58 58" fill="none" xmlns="http://www.w3.org/2000/svg">
<g clip-path="url(#clip0_2177_1255)">
<path d="M29.9081 5.37794L40.0362 15.2381H29.9081V5.37794ZM47.6501 49.3448H47.9008V48.5872C47.9008 47.3223 48.4104 46.1694 49.2295 45.3314C50.0568 44.4878 51.1971 43.9623 52.453 43.9623C53.7101 43.9623 54.8516 44.4866 55.6777 45.3314C56.498 46.1694 57.0064 47.3223 57.0064 48.5872V49.3448H57.2571C57.6661 49.3448 58 49.6721 58 50.0729V57.2718C58 57.6727 57.6661 58 57.2571 58H47.6501C47.2411 58 46.9072 57.6727 46.9072 57.2718V50.0729C46.9072 49.6721 47.2411 49.3448 47.6501 49.3448ZM51.8649 53.9991L51.0908 55.9843H53.8152L53.0989 53.9719C53.5529 53.7432 53.8649 53.2789 53.8649 52.7421C53.8649 51.9777 53.2329 51.3594 52.453 51.3594C51.6731 51.3594 51.0423 51.9777 51.0423 52.7421C51.0423 53.3004 51.3797 53.7805 51.8649 53.9991ZM49.3069 49.3448H55.6003V48.5872C55.6003 47.688 55.2421 46.8727 54.6667 46.2849C54.0971 45.7029 53.3138 45.3416 52.453 45.3416C51.5934 45.3416 50.8089 45.7029 50.2405 46.2849C49.6639 46.8727 49.3069 47.688 49.3069 48.5872V49.3448ZM42.0223 28.1807C47.0586 31.3096 51.6084 32.7908 55.5136 32.4398C55.7066 36.2753 55.4351 39.6659 54.7395 42.6306C54.1549 42.3984 53.5345 42.2512 52.8955 42.2048C53.4097 39.8006 53.6049 37.0771 53.4513 34.0184C50.1457 34.3151 46.2937 33.0615 42.0304 30.4127C38.3412 33.2212 34.5343 34.0433 30.6533 33.8451C30.4812 40.2683 31.6331 45.1049 33.8572 48.6234C35.5025 47.2758 38.3043 47.4797 39.6306 45.6915C39.7254 45.5534 39.7693 45.4798 39.7693 45.4186C39.7681 45.3869 38.3297 43.6577 38.2003 43.4561C37.8618 42.9273 37.2275 42.2104 37.2275 41.591C37.2275 41.2422 37.5082 40.7858 37.9103 40.685C37.8791 40.1607 37.8583 39.6296 37.8583 39.1042C37.8583 38.7927 37.8641 38.4779 37.8756 38.1699C37.8929 37.9751 37.9299 37.8891 37.9831 37.7011C38.2305 36.9098 38.7702 36.2374 39.4966 35.8156C39.7543 35.6559 40.0327 35.5325 40.3192 35.4305C40.8392 35.2448 40.5873 34.4408 41.1569 34.4283C42.4902 34.3955 44.6819 35.537 45.5358 36.4441C46.08 37.0341 46.3908 37.6898 46.4092 38.4847L46.3549 40.7722C46.5918 40.8289 46.8564 41.0101 46.9141 41.2422C47.0967 41.9636 46.333 42.8627 45.9771 43.4369C45.6502 43.9668 44.3966 45.413 44.3966 45.4254C44.3908 45.4877 44.4231 45.5658 44.5086 45.6915C44.9754 46.3212 45.6247 46.7028 46.3411 46.9939C46.2486 47.3608 46.1886 47.7379 46.1631 48.1218C46.0488 48.1999 45.9436 48.2871 45.8454 48.3822L45.8396 48.389C45.4041 48.8159 45.1337 49.4048 45.1337 50.0526V55.8812C44.1713 56.4135 43.1522 56.8778 42.0754 57.2741C33.3581 54.1565 28.2016 46.516 28.5852 32.2348C33.1686 32.4704 37.6653 31.4987 42.0223 28.1807ZM45.2377 15.9911C45.2377 15.2584 44.7339 14.6243 44.0442 14.4408L29.5326 0.592264C29.2311 0.224222 28.7701 0 28.2663 0H2.94853C1.31829 0 0 1.29098 0 2.88885V52.3537C0 53.9493 1.3206 55.2425 2.94853 55.2425H31.3627C30.554 54.3332 29.8065 53.348 29.1213 52.2869H3.01669V2.93981H26.8914V16.3026C26.8914 17.1904 27.6263 17.9231 28.5459 17.9231H42.2233V23.6226C43.2435 24.2466 44.2487 24.8196 45.2377 25.3405V15.9911Z" fill="#DAE1ED"/>
<path d="M7.59509 24.7245C7.27852 24.729 6.99083 24.8729 6.78171 25.1005C6.57489 25.327 6.44434 25.6373 6.44434 25.977C6.44434 26.3235 6.57143 26.6338 6.77824 26.8592C6.98852 27.089 7.28199 27.2295 7.61011 27.2295H26.9408C27.3301 27.1785 27.7172 27.1185 28.0996 27.0505C28.1851 26.995 28.2625 26.9294 28.3318 26.8546L28.3399 26.8444C28.5421 26.6179 28.6692 26.3111 28.6692 25.977C28.6692 25.6316 28.5421 25.3202 28.3364 25.0948C28.1262 24.8661 27.8327 24.7245 27.5034 24.7256L7.59509 24.7245Z" fill="#F5454E"/>
<path d="M7.61011 32.5247C7.28892 32.5247 6.9943 32.6697 6.78171 32.9018C6.57489 33.1283 6.44434 33.4386 6.44434 33.7783C6.44434 34.1237 6.57143 34.4352 6.77709 34.6594C6.98852 34.8893 7.28199 35.0297 7.61011 35.0297H21.6491C21.5729 34.2155 21.5139 33.3809 21.4723 32.5247H7.61011Z" fill="#F5454E"/>
<path d="M7.61011 40.3261C7.28892 40.3261 6.9943 40.471 6.78171 40.7021C6.57489 40.9285 6.44434 41.24 6.44434 41.5797C6.44434 41.9251 6.57027 42.2354 6.77709 42.4607C6.98852 42.6906 7.28199 42.831 7.61011 42.831H23.046C22.8195 42.0247 22.6162 41.189 22.4348 40.3261H7.61011Z" fill="#F5454E"/>
<path d="M7.61011 16.922C7.28892 16.922 6.9943 17.0658 6.78286 17.298C6.57489 17.5233 6.44434 17.8348 6.44434 18.1734C6.44434 18.5199 6.57143 18.8313 6.77709 19.0555C6.98852 19.2854 7.28314 19.4258 7.61011 19.4258H19.0484C19.3707 19.4258 19.6642 19.282 19.8768 19.051C20.0847 18.8245 20.2141 18.5142 20.2141 18.1745C20.2141 17.8291 20.087 17.5177 19.8814 17.2923C19.6711 17.0636 19.3776 16.922 19.0484 16.922H7.61011Z" fill="#F5454E"/>
<path d="M7.61011 9.6665C7.28892 9.6665 6.9943 9.81032 6.78171 10.0425C6.57489 10.269 6.44434 10.5792 6.44434 10.919C6.44434 11.2644 6.57143 11.5758 6.77709 11.8C6.98852 12.0299 7.28199 12.1703 7.61011 12.1703H13.8931C14.2154 12.1703 14.5089 12.0265 14.7203 11.7955C14.9283 11.569 15.0577 11.2587 15.0577 10.919C15.0577 10.5725 14.9317 10.2622 14.7249 10.0368L14.7157 10.0278C14.5066 9.80353 14.2166 9.6665 13.8931 9.6665H7.61011Z" fill="#F5454E"/>
</g>
<defs>
<clipPath id="clip0_2177_1255">
<rect width="58" height="58" fill="white"/>
</clipPath>
</defs>
</svg>
