<svg width="91" height="79" viewBox="0 0 91 79" fill="none" xmlns="http://www.w3.org/2000/svg">
<path d="M78 6.58341C78.8536 6.5834 79.6988 6.75367 80.4874 7.08451C81.2761 7.41534 81.9926 7.90026 82.5962 8.51158C83.1998 9.1229 83.6786 9.84864 84.0052 10.6474C84.3319 11.4461 84.5 12.3022 84.5 13.1667V65.8335C84.5 66.698 84.3319 67.5541 84.0052 68.3528C83.6786 69.1516 83.1998 69.8773 82.5962 70.4886C81.9926 71.1 81.2761 71.5849 80.4874 71.9157C79.6988 72.2465 78.8536 72.4168 78 72.4168H13C12.1465 72.4168 11.3012 72.2465 10.5126 71.9157C9.72396 71.5849 9.00739 71.1 8.4038 70.4886C7.80022 69.8773 7.32142 69.1516 6.99476 68.3528C6.6681 67.5541 6.49997 66.698 6.49997 65.8335V13.1666C6.49997 12.3021 6.6681 11.446 6.99476 10.6473C7.32142 9.84854 7.80022 9.12279 8.4038 8.51147C9.00739 7.90016 9.72396 7.41523 10.5126 7.0844C11.3012 6.75356 12.1465 6.58329 13 6.58331L78 6.58341ZM78 0.000109234H13C11.2929 9.4881e-05 9.60241 0.340646 8.02518 1.00232C6.44795 1.66399 5.01484 2.63382 3.80767 3.85644C2.6005 5.07907 1.64292 6.53053 0.989603 8.12798C0.336282 9.72542 1.41709e-05 11.4375 0 13.1666V65.8334C0 69.3254 1.36963 72.6744 3.80759 75.1436C6.24556 77.6128 9.55214 79 12.9999 79H78C79.7071 79 81.3976 78.6595 82.9749 77.9978C84.5521 77.3361 85.9852 76.3663 87.1924 75.1436C88.3995 73.921 89.3571 72.4695 90.0104 70.8721C90.6637 69.2746 91 67.5625 91 65.8334V13.1666C91 9.67461 89.6304 6.32563 87.1924 3.85641C84.7545 1.38719 81.4478 0.000109234 78 0.000109234Z" fill="#CDD7E7"/>
<path d="M63.7563 20.0006C64.1507 19.8351 64.5733 19.75 65.0001 19.75C65.862 19.75 66.6887 20.0968 67.2982 20.7141C67.9077 21.3314 68.2501 22.1687 68.2501 23.0417V55.9585C68.2501 56.8315 67.9077 57.6687 67.2982 58.286C66.6887 58.9034 65.862 59.2502 65.0001 59.2502C64.1381 59.2502 63.3115 58.9034 62.702 58.286C62.0925 57.6687 61.75 56.8315 61.75 55.9585V23.0417C61.75 22.6094 61.8341 22.1814 61.9974 21.782C62.1608 21.3827 62.4002 21.0198 62.702 20.7141C63.0037 20.4085 63.362 20.166 63.7563 20.0006Z" fill="#F5454E"/>
<path d="M23.7019 20.7141C24.3114 20.0968 25.1381 19.75 26 19.75C26.862 19.75 27.6887 20.0968 28.2982 20.7141C28.9077 21.3314 29.2501 22.1687 29.2501 23.0417V55.9585C29.2501 56.8315 28.9077 57.6687 28.2982 58.286C27.6887 58.9034 26.862 59.2502 26 59.2502C25.1381 59.2502 24.3114 58.9034 23.7019 58.286C23.0924 57.6687 22.75 56.8315 22.75 55.9585V23.0417C22.75 22.1687 23.0924 21.3314 23.7019 20.7141Z" fill="#F5454E"/>
<path d="M43.202 27.2975C43.8115 26.6802 44.6381 26.3334 45.5001 26.3334C46.362 26.3334 47.1887 26.6802 47.7982 27.2975C48.4077 27.9149 48.7501 28.7521 48.7501 29.6251V32.9167C48.7501 33.7897 48.4077 34.627 47.7982 35.2443C47.1887 35.8616 46.362 36.2084 45.5001 36.2084C44.6381 36.2084 43.8114 35.8616 43.2019 35.2443C42.5924 34.627 42.25 33.7897 42.25 32.9167V29.625C42.25 28.752 42.5925 27.9148 43.202 27.2975Z" fill="#F5454E"/>
<path d="M44.2563 43.0423C44.6506 42.8769 45.0733 42.7917 45.5001 42.7917C45.9269 42.7917 46.3495 42.8769 46.7438 43.0423C47.1381 43.2077 47.4964 43.4502 47.7982 43.7559C48.1 44.0615 48.3394 44.4244 48.5027 44.8238C48.666 45.2231 48.7501 45.6512 48.7501 46.0834V49.375C48.7501 50.2481 48.4077 51.0853 47.7982 51.7026C47.1887 52.3199 46.362 52.6668 45.5001 52.6668C44.6381 52.6668 43.8114 52.3199 43.2019 51.7026C42.5924 51.0853 42.25 50.2481 42.25 49.375V46.0834C42.25 45.6512 42.3341 45.2231 42.4974 44.8238C42.6607 44.4244 42.9001 44.0615 43.2019 43.7559C43.5037 43.4502 43.862 43.2077 44.2563 43.0423Z" fill="#F5454E"/>
</svg>
