<svg width="56" height="71" viewBox="0 0 56 71" fill="none" xmlns="http://www.w3.org/2000/svg">
<path d="M27.8931 13.041L32.6259 22.2187L42.7451 23.4851L35.3191 30.3753L36.8043 40.5716L27.8931 34.8352L18.9818 40.5716L20.467 30.3753L13.041 23.4851L23.4374 22.2187L27.8931 13.041Z" fill="#F3FCFF"/>
<path d="M27.8929 71L6.50286 45.7729C6.3814 45.6282 5.61993 44.6281 5.61993 44.6281C1.96572 39.815 -0.00853688 33.936 2.77487e-05 27.8929C2.77487e-05 20.4952 2.93873 13.4006 8.16965 8.16963C13.4006 2.9387 20.4952 0 27.8929 0C35.2905 0 42.3852 2.9387 47.6161 8.16963C52.847 13.4006 55.7857 20.4952 55.7857 27.8929C55.7948 33.9335 53.8219 39.8103 50.1696 44.6217L50.1658 44.6281C50.1658 44.6281 49.4051 45.6282 49.2917 45.7625L27.8929 71ZM9.66743 41.573C9.66996 41.5748 10.2593 42.3545 10.3942 42.5224L27.8929 63.1593L45.4146 42.4932C45.5259 42.3533 46.1203 41.568 46.1216 41.5659C49.1068 37.6333 50.7201 32.8302 50.7143 27.8929C50.7143 21.8402 48.3099 16.0355 44.03 11.7557C39.7502 7.47582 33.9455 5.07143 27.8929 5.07143C21.8402 5.07143 16.0355 7.47582 11.7557 11.7557C7.47584 16.0355 5.07145 21.8402 5.07145 27.8929C5.06584 32.8329 6.68032 37.6385 9.66743 41.573Z" fill="white"/>
</svg>
