<svg width="52" height="63" viewBox="0 0 52 63" fill="none" xmlns="http://www.w3.org/2000/svg">
<path d="M13.4653 35.981C12.954 35.9803 12.4638 35.7768 12.1023 35.4152C11.7408 35.0535 11.5375 34.5632 11.537 34.0519C11.5376 33.5406 11.7409 33.0503 12.1024 32.6887C12.4638 32.3271 12.954 32.1235 13.4653 32.1227H38.4619C38.9734 32.1232 39.4639 32.3266 39.8255 32.6883C40.1872 33.05 40.3906 33.5404 40.3911 34.0519C40.3906 34.5634 40.1872 35.0538 39.8256 35.4154C39.4639 35.7771 38.9735 35.9805 38.462 35.981H13.4653ZM13.4653 26.8189C12.954 26.8184 12.4637 26.615 12.1022 26.2534C11.7406 25.8918 11.5372 25.4016 11.5366 24.8902C11.5372 24.3789 11.7406 23.8886 12.1022 23.527C12.4637 23.1654 12.954 22.9621 13.4653 22.9615H32.1879C32.6991 22.9622 33.1891 23.1656 33.5506 23.5271C33.9121 23.8885 34.1154 24.3786 34.1161 24.8898C34.1155 25.4011 33.9122 25.8912 33.5508 26.2528C33.1893 26.6144 32.6992 26.8178 32.1879 26.8185L13.4653 26.8189ZM13.4653 17.1593C12.9541 17.1586 12.4641 16.9552 12.1026 16.5937C11.7411 16.2322 11.5377 15.7422 11.537 15.231C11.5377 14.7198 11.7411 14.2297 12.1026 13.8683C12.464 13.5068 12.9541 13.3034 13.4653 13.3027H38.4619C38.9732 13.3033 39.4633 13.5066 39.8248 13.8681C40.1863 14.2296 40.3897 14.7197 40.3903 15.231C40.3897 15.7422 40.1863 16.2323 39.8249 16.5938C39.4634 16.9553 38.9732 17.1586 38.462 17.1592H13.4653L13.4653 17.1593Z" fill="#F3FCFF"/>
<path d="M6.56101 62.5278C2.94308 62.5278 0 59.5843 0 55.9664V6.56109C0 2.94309 2.94308 0 6.56101 0H45.4389C49.0564 0 52 2.94358 52 6.56151V46.0303C51.999 46.5147 51.8355 46.9847 51.5358 47.3652L40.2229 61.7059C40.0219 61.9627 39.7649 62.1702 39.4716 62.3126C39.1783 62.455 38.8563 62.5286 38.5303 62.5278H6.56101ZM6.56059 4.31354C5.96523 4.31511 5.3947 4.55232 4.97372 4.9733C4.55273 5.39429 4.31553 5.96482 4.31395 6.56018V55.9664C4.31533 56.5619 4.55246 57.1325 4.97348 57.5536C5.3945 57.9747 5.96514 58.2119 6.56059 58.2134H34.9695V49.4097C34.9695 45.7921 37.9127 42.8486 41.5306 42.8486H47.686V6.56109C47.6844 5.96562 47.4472 5.39498 47.0261 4.9739C46.6051 4.55282 46.0345 4.31555 45.439 4.31395H6.56051L6.56059 4.31354ZM41.5302 47.1631C40.935 47.1645 40.3646 47.4015 39.9437 47.8224C39.5227 48.2432 39.2856 48.8136 39.284 49.4088V55.9321L46.2011 47.1631H41.5302Z" fill="white"/>
</svg>
