<svg width="76" height="76" viewBox="0 0 76 76" fill="none" xmlns="http://www.w3.org/2000/svg">
<g clip-path="url(#clip0_2177_1264)">
<path d="M14.2498 71.25H18.9998V64.125H28.4998C31.6482 64.1215 34.6666 62.8693 36.8929 60.6431C39.1191 58.4168 40.3713 55.3984 40.3748 52.25V49.2117L45.8758 47.3782C46.2131 47.2657 46.5209 47.0789 46.7764 46.8315C47.0319 46.5842 47.2286 46.2826 47.352 45.9491C47.4754 45.6155 47.5223 45.2586 47.4892 44.9045C47.4562 44.5504 47.3441 44.2082 47.1611 43.9033L40.3748 32.5919V26.125C40.3685 20.4579 38.1145 15.0248 34.1073 11.0175C30.1 7.01031 24.6669 4.75629 18.9998 4.75H7.1248V9.5H18.9998C23.4075 9.5049 27.6333 11.258 30.75 14.3748C33.8668 17.4915 35.6199 21.7173 35.6248 26.125V33.25C35.6248 33.6804 35.7419 34.1027 35.9635 34.4717L41.5651 43.8083L37.2488 45.2468C36.7759 45.4045 36.3646 45.7069 36.0731 46.1113C35.7816 46.5157 35.6248 47.0015 35.6248 47.5V52.25C35.6227 54.139 34.8714 55.9501 33.5356 57.2858C32.1999 58.6216 30.3888 59.3729 28.4998 59.375H16.6248C15.9949 59.375 15.3908 59.6252 14.9454 60.0706C14.5 60.516 14.2498 61.1201 14.2498 61.75V71.25Z" fill="#CDD7E7"/>
<path d="M21.375 28.5H30.875V33.25H21.375V28.5Z" fill="#CDD7E7"/>
<path d="M53.8353 59.8899C55.5782 58.3304 56.9725 56.4207 57.927 54.2856C58.8816 52.1506 59.375 49.8381 59.375 47.4994C59.375 45.1606 58.8816 42.8482 57.927 40.7131C56.9725 38.5781 55.5782 36.6684 53.8353 35.1089L50.6671 38.6476C51.9125 39.7615 52.9088 41.1256 53.5909 42.6508C54.273 44.1761 54.6256 45.8281 54.6256 47.4989C54.6256 49.1697 54.273 50.8217 53.5909 52.347C52.9088 53.8722 51.9125 55.2363 50.6671 56.3502L53.8353 59.8899Z" fill="#F5454E"/>
<path d="M60.8016 68.402C64.0457 65.968 66.6786 62.8123 68.492 59.1846C70.3054 55.5569 71.2495 51.557 71.2495 47.5013C71.2495 43.4456 70.3054 39.4456 68.492 35.818C66.6786 32.1903 64.0457 29.0346 60.8016 26.6006L57.9501 30.4001C60.6051 32.3913 62.76 34.9733 64.2441 37.9417C65.7283 40.91 66.5009 44.1831 66.5009 47.5018C66.5009 50.8205 65.7283 54.0936 64.2441 57.0619C62.76 60.0302 60.6051 62.6122 57.9501 64.6034L60.8016 68.402Z" fill="#F5454E"/>
</g>
<defs>
<clipPath id="clip0_2177_1264">
<rect width="76" height="76" fill="white" transform="matrix(-1 0 0 1 76 0)"/>
</clipPath>
</defs>
</svg>
