<svg width="104" height="104" viewBox="0 0 104 104" fill="none" xmlns="http://www.w3.org/2000/svg">
<circle cx="52" cy="52" r="52" fill="#F5454E"/>
<g clip-path="url(#clip0_850_4336)">
<path d="M67.476 76.4602C67.2119 76.3535 66.9254 76.2917 66.622 76.2917C66.3186 76.2917 66.032 76.3535 65.768 76.4602C65.5039 76.5725 65.2623 76.7297 65.0657 76.9319L65.0488 76.9431C64.9364 77.0554 64.8297 77.1846 64.7454 77.325C64.7005 77.3979 64.6555 77.4766 64.6162 77.5608H61.0709V74.4836C60.526 74.7363 59.9585 74.9272 59.3798 75.0452C59.2787 75.0676 59.1831 75.0845 59.082 75.1013V78.5491C59.082 78.8242 59.1944 79.0713 59.3742 79.251C59.554 79.4307 59.8012 79.543 60.0765 79.543H64.6499C64.6836 79.6104 64.7229 79.6777 64.7679 79.7451C64.8465 79.863 64.9364 79.9753 65.0376 80.0764L65.0544 80.0933C65.2567 80.2954 65.5039 80.4639 65.7792 80.5762C66.0433 80.6829 66.3298 80.7446 66.6332 80.7446C66.9254 80.7446 67.2119 80.6885 67.4704 80.5818L67.4872 80.5762C67.7625 80.4639 68.0041 80.2954 68.212 80.0933C68.4143 79.8911 68.5828 79.644 68.6952 79.3689C68.8019 79.105 68.8637 78.8186 68.8637 78.5154C68.8637 78.2178 68.8019 77.9314 68.6952 77.6619C68.5828 77.3867 68.4143 77.1396 68.212 76.9375C67.9985 76.741 67.7513 76.5725 67.476 76.4602ZM51.2668 55.4031H47.1091L46.5135 57.3572H42.7717L47.2383 45.4978H51.2499L55.6997 57.3572H51.8623L51.2668 55.4031ZM50.4914 52.8313L49.1935 48.5693L47.8901 52.8313H50.4914ZM56.7335 45.4922H60.4136V57.3516H56.7335V45.4922ZM53.9299 33.3352C53.3231 33.7732 52.7613 34.3628 52.2725 35.1265C52.25 35.1658 52.2163 35.1995 52.1769 35.2219C52.0252 35.3174 51.823 35.2725 51.7275 35.1265C51.2387 34.3628 50.6768 33.7732 50.07 33.3352C49.4183 32.8635 48.716 32.5659 47.9912 32.4199H47.98C47.272 32.2739 46.5473 32.2739 45.8506 32.3975C45.1146 32.5266 44.401 32.7961 43.7605 33.1667C43.1256 33.5374 42.5525 34.0146 42.075 34.5649C41.6143 35.0984 41.2434 35.7104 41.0018 36.3674C40.9625 36.4685 40.9288 36.5752 40.8951 36.6875C40.867 36.7886 40.8333 36.9009 40.8108 37.0132C40.7827 37.1592 40.6591 37.2659 40.5018 37.2715C39.7489 37.3838 39.0017 37.6589 38.305 38.0688C37.5971 38.49 36.9397 39.0627 36.3722 39.7478C35.8104 40.4329 35.3384 41.2415 35.0013 42.1399C34.6867 42.9822 34.4957 43.9087 34.4564 44.8914C34.4507 45.0205 34.4507 45.144 34.4507 45.2732C34.4507 45.3911 34.4564 45.5146 34.4564 45.6438C34.462 45.7505 34.417 45.8628 34.3215 45.9302C33.8608 46.2615 33.445 46.604 33.0742 46.9578C32.6978 47.3228 32.3663 47.699 32.0797 48.0864C31.6134 48.7209 31.2707 49.3835 31.0403 50.0518C30.7987 50.748 30.6808 51.4612 30.6695 52.1631C30.6639 52.8369 30.7538 53.5051 30.9448 54.1509C31.1358 54.8079 31.428 55.448 31.8044 56.0432C32.0179 56.3857 32.2595 56.7227 32.5236 57.0371C32.7933 57.3572 33.0855 57.6604 33.4001 57.9468C33.4787 58.0198 33.5237 58.1377 33.5012 58.25C33.4113 58.6768 33.3664 59.0979 33.3495 59.5134C33.3383 59.9402 33.3608 60.3613 33.4169 60.7712C33.5237 61.5237 33.7428 62.2424 34.0518 62.905C34.3777 63.6125 34.8047 64.2583 35.2991 64.8254C35.7767 65.3813 36.3217 65.8643 36.906 66.2629C37.4959 66.6672 38.1196 66.9817 38.7601 67.2007C39.0466 67.2961 39.3388 67.3748 39.6366 67.4309C39.9175 67.4871 40.1984 67.5208 40.4737 67.532C40.6254 67.5264 40.7659 67.6331 40.7996 67.7903C40.9457 68.4585 41.2153 69.0874 41.5862 69.6545C41.9738 70.2498 42.4626 70.7776 43.0245 71.2156C43.7324 71.7659 44.5639 72.1814 45.4404 72.4004C46.2663 72.6082 47.1372 72.6475 47.9912 72.4678C48.7553 72.3105 49.4969 71.9849 50.1824 71.4683C50.8117 70.991 51.396 70.3508 51.8848 69.5198C51.9129 69.4692 51.9578 69.4299 52.014 69.4019C52.1713 69.3176 52.368 69.3794 52.4522 69.5366C52.8568 70.2891 53.3512 70.8899 53.9018 71.3447C54.4974 71.8333 55.1547 72.1646 55.8458 72.3555C56.7279 72.5969 57.6493 72.5969 58.5426 72.4116C59.4978 72.2151 60.4192 71.7996 61.2114 71.2268C61.8351 70.7832 62.3857 70.2385 62.8239 69.6208C63.2397 69.0425 63.5487 68.3967 63.7285 67.7173C63.7509 67.5881 63.8521 67.4758 63.9925 67.4534C64.8185 67.3074 65.6331 66.9648 66.3804 66.4539C67.1276 65.9429 67.8075 65.269 68.3637 64.4661C68.875 63.7249 69.2851 62.8713 69.5492 61.9392C69.7964 61.0688 69.9144 60.1255 69.8751 59.1316C69.8638 59.0193 69.9144 58.907 70.0155 58.8396C70.4987 58.5083 70.9257 58.1602 71.3078 57.8064C71.6954 57.4358 72.0382 57.054 72.3303 56.6553C72.7798 56.0488 73.1113 55.4199 73.3416 54.7742C73.5776 54.106 73.7012 53.4265 73.7237 52.7471C73.7405 52.0901 73.6619 51.4387 73.4933 50.7986C73.3248 50.1528 73.0607 49.5295 72.718 48.9399L72.7067 48.9287C72.482 48.5413 72.2179 48.1707 71.9258 47.8113C71.6336 47.4519 71.3021 47.115 70.9482 46.7949C70.8639 46.7219 70.819 46.604 70.8414 46.4861C70.9201 46.0986 70.9706 45.7112 70.9875 45.3293C71.0044 44.9419 70.9931 44.5601 70.9538 44.1838C70.8695 43.4033 70.6616 42.6621 70.3582 41.9714C70.038 41.2415 69.611 40.5676 69.1109 39.978C68.6278 39.4053 68.0715 38.9055 67.476 38.49C66.8804 38.0745 66.2455 37.7488 65.5994 37.5298L65.5826 37.5242C65.2398 37.4062 64.8915 37.322 64.5488 37.2659H64.5375C64.2004 37.2097 63.8633 37.1873 63.5318 37.1929C63.3801 37.2041 63.2341 37.103 63.1947 36.9458C63.1385 36.7156 63.0655 36.491 62.9812 36.272C62.8913 36.0474 62.7902 35.8284 62.6722 35.6094C62.3688 35.0479 61.9699 34.5312 61.5036 34.0876C61.026 33.6328 60.481 33.2454 59.8967 32.9478C59.2955 32.6445 58.6382 32.4312 57.9639 32.3357C57.3234 32.2458 56.6661 32.2571 56.02 32.3918C55.2952 32.5659 54.5816 32.8635 53.9299 33.3352ZM63.1161 39.658C63.1554 39.5344 63.2678 39.439 63.4082 39.4277C63.6442 39.4109 63.8858 39.4221 64.1274 39.4614C64.3746 39.5007 64.6218 39.5625 64.869 39.6467C65.3353 39.804 65.8017 40.0454 66.2343 40.3486C66.6613 40.6462 67.0658 41.0112 67.4142 41.4268L67.4198 41.438C67.785 41.8704 68.094 42.3533 68.3244 42.8811C68.5435 43.3752 68.6896 43.9031 68.7514 44.459C68.7907 44.8296 68.7907 45.217 68.7457 45.6101C68.7064 45.9751 68.6221 46.3513 68.4929 46.7275L68.4873 46.75C68.4086 46.9858 68.4143 47.2329 68.4873 47.4519C68.566 47.6765 68.712 47.8787 68.9199 48.0134L68.9368 48.0247C69.3301 48.3167 69.6784 48.6367 69.9818 48.9736C70.2964 49.3162 70.5661 49.6868 70.7909 50.0686C71.0381 50.4897 71.2291 50.9277 71.3471 51.377C71.4707 51.8206 71.5269 52.2698 71.51 52.7134C71.4988 53.1738 71.4089 53.6343 71.246 54.0891C71.0886 54.5215 70.8583 54.9482 70.5549 55.3638L70.5493 55.3694C70.274 55.7456 69.9256 56.1162 69.5155 56.47C69.1222 56.8069 68.6671 57.127 68.1446 57.4358L68.1277 57.447C67.9198 57.5649 67.7681 57.7446 67.6782 57.9524C67.5883 58.1602 67.5603 58.3904 67.6052 58.615L67.6108 58.6599C67.7176 59.519 67.667 60.3389 67.4928 61.0857C67.3018 61.8999 66.9703 62.6299 66.5377 63.2532C66.2062 63.7305 65.8242 64.1404 65.414 64.4661C64.9926 64.803 64.5375 65.05 64.0712 65.2017H64.0656C63.897 65.2522 63.7116 65.1567 63.661 64.9883C63.0262 62.9163 61.9306 62.248 60.0765 61.2935L60.0372 61.271C59.7787 61.1475 59.4978 61.1362 59.2449 61.2148C58.9921 61.2935 58.773 61.4675 58.6438 61.7202L58.6269 61.7539C58.5033 62.0122 58.4921 62.293 58.5707 62.5457C58.655 62.7983 58.8348 63.0229 59.0933 63.1577C60.6439 63.9495 61.7901 64.5503 61.7733 66.4932C61.7676 67.0715 61.5878 67.6331 61.2844 68.1384C60.9642 68.6719 60.5035 69.1492 59.9697 69.5366C59.4247 69.9297 58.8123 70.2161 58.1831 70.3564C57.5819 70.4968 56.9639 70.5024 56.3852 70.3452C55.4076 70.0757 54.7727 69.4243 54.3457 68.6326C53.9411 67.8801 53.7164 67.0042 53.5535 66.2068C53.5422 66.1787 53.5422 66.145 53.5422 66.1169C53.5422 65.7126 53.2276 65.4487 52.8174 65.3308C52.6377 65.2747 52.441 65.2522 52.25 65.2522C52.0533 65.2522 51.8623 65.2803 51.6825 65.3308C51.278 65.4543 50.9634 65.7183 50.9634 66.1169C50.9634 66.145 50.9577 66.1675 50.9521 66.1956C50.6375 67.4421 50.1824 68.3799 49.6486 69.0537C49.025 69.8455 48.2946 70.2778 47.5417 70.4351C46.9911 70.5474 46.4236 70.5193 45.8843 70.3789C45.3168 70.2273 44.7774 69.9521 44.3055 69.5928C43.8392 69.2278 43.4515 68.7842 43.1818 68.2844C42.9234 67.8071 42.7717 67.2793 42.7717 66.7402C42.7717 64.6963 44.0077 64.0112 45.6427 63.1746C45.9011 63.0398 46.0809 62.8152 46.1652 62.5625C46.2495 62.3042 46.2326 62.0178 46.1034 61.7539C45.9686 61.4956 45.7438 61.3159 45.491 61.2317C45.2382 61.1531 44.9572 61.1643 44.6988 61.2878L44.6819 61.2935C42.7548 62.2761 41.603 62.9949 40.912 65.1343C40.8726 65.2747 40.7378 65.3813 40.5861 65.3757C40.3951 65.3701 40.204 65.3477 40.0074 65.3083C39.8164 65.269 39.6253 65.2185 39.4455 65.1511C38.9904 64.9939 38.5353 64.7637 38.1083 64.4717C37.687 64.1797 37.2937 63.8315 36.9453 63.4272C36.5857 63.0117 36.2767 62.5457 36.0408 62.0347C35.816 61.5574 35.6587 61.0464 35.58 60.5129V60.5017C35.5239 60.1086 35.5126 59.6987 35.5576 59.2776C35.5969 58.8845 35.6812 58.4746 35.8216 58.0703L35.8273 58.0535C35.9059 57.8232 35.9003 57.5818 35.8329 57.3684L35.8273 57.3572C35.7542 57.1326 35.6081 56.936 35.4059 56.7957L35.3946 56.7844C35.0351 56.5149 34.7092 56.2285 34.4226 55.9141C34.1305 55.5996 33.872 55.2627 33.6585 54.9146C33.4001 54.4934 33.1978 54.0442 33.063 53.5837C32.9338 53.1345 32.8663 52.6741 32.872 52.2024C32.8776 51.7251 32.9618 51.2366 33.1304 50.7593C33.2933 50.3044 33.5293 49.8496 33.8552 49.406C34.1305 49.0298 34.4676 48.6592 34.8721 48.3054C35.2598 47.9629 35.698 47.6372 36.2037 47.3284C36.3891 47.2161 36.5239 47.0588 36.6138 46.8792L36.6195 46.8623C36.7094 46.677 36.7431 46.4692 36.715 46.2615C36.7094 46.239 36.7094 46.2166 36.7094 46.1941V46.1829C36.6813 45.9863 36.6644 45.7898 36.6532 45.5989C36.6419 45.3911 36.6419 45.1833 36.6475 44.9812C36.6756 44.2456 36.8161 43.5549 37.0465 42.9316C37.2937 42.2634 37.642 41.6626 38.0578 41.1516C38.4005 40.7305 38.7938 40.3767 39.2039 40.1016C39.6141 39.8264 40.0467 39.6299 40.4906 39.5176C40.6591 39.467 40.8445 39.5625 40.8951 39.731C41.2434 40.8315 41.6817 41.5222 42.5188 42.3027L42.5525 42.3308C42.7604 42.5217 43.0301 42.6116 43.2942 42.6003C43.5582 42.5891 43.8167 42.4824 44.0077 42.2747L44.0246 42.2522C44.2156 42.0444 44.3055 41.7749 44.2943 41.511C44.283 41.2471 44.1707 40.9832 43.9571 40.781C43.2829 40.1577 43.1312 39.7703 42.929 39.1414C42.693 38.417 42.7323 37.7095 42.9627 37.0806C43.12 36.6482 43.3672 36.2439 43.6818 35.8901C43.9909 35.5364 44.3673 35.2219 44.7831 34.9805L44.7999 34.9692C45.2269 34.7222 45.6876 34.5425 46.1652 34.4526C46.6203 34.3684 47.0866 34.3628 47.5417 34.4583C48.1822 34.593 48.8115 34.9299 49.3677 35.5139C49.8565 36.0249 50.2891 36.7324 50.6319 37.6646L50.6375 37.6758C50.7555 38.0408 51.1375 38.2542 51.587 38.3384C51.7893 38.3777 52.0028 38.3889 52.2107 38.3777H52.2163C52.4298 38.3665 52.632 38.3271 52.8231 38.2654C53.1602 38.1531 53.4242 37.9734 53.486 37.7432V37.614C53.486 36.9626 53.8737 36.272 54.4075 35.7048C54.9918 35.0872 55.7728 34.5986 56.4301 34.4639C56.8459 34.3796 57.2673 34.374 57.6774 34.4358C58.1044 34.5032 58.5202 34.6379 58.9135 34.8345L58.9472 34.8457C59.3461 35.0479 59.7113 35.3062 60.0315 35.6094C60.3462 35.9126 60.6159 36.2551 60.8181 36.6313C61.1384 37.2209 61.2844 37.8948 61.1833 38.6079C61.0934 39.2312 61.0709 39.6243 60.5484 40.2476L60.5428 40.2532C60.3574 40.4722 60.2787 40.7473 60.3012 41.0168C60.3237 41.2751 60.4417 41.5278 60.6496 41.7075L60.6833 41.7356C60.9024 41.9153 61.1721 41.9883 61.4361 41.9658C61.6946 41.9434 61.9474 41.8254 62.1272 41.6177L62.1553 41.5784C62.6947 40.9382 62.8688 40.4666 63.1161 39.658ZM75.4542 67.1389C75.3474 66.875 75.2856 66.5886 75.2856 66.2854C75.2856 65.9822 75.3474 65.6958 75.4542 65.4319C75.5665 65.168 75.7239 64.9265 75.9261 64.73L75.9374 64.7131C76.0497 64.6008 76.179 64.4941 76.3194 64.4099C76.3925 64.365 76.4711 64.3201 76.5554 64.2808V60.7375H72.1955C72.2011 60.5073 72.2011 60.2771 72.1899 60.0413C72.1786 59.9121 72.2348 59.783 72.3472 59.71C72.7966 59.4011 73.2068 59.0811 73.5776 58.7498H77.5442C77.8195 58.7498 78.0667 58.8621 78.2465 59.0417C78.4263 59.2214 78.5387 59.4685 78.5387 59.7436V64.3145C78.6061 64.3481 78.6735 64.3875 78.741 64.4324C78.859 64.511 78.9713 64.6008 79.0725 64.7019L79.0893 64.7188C79.2916 64.9209 79.4601 65.168 79.5725 65.4431C79.6792 65.707 79.7411 65.9934 79.7411 66.2966C79.7411 66.5886 79.6849 66.8694 79.5781 67.1333L79.5725 67.1501C79.4601 67.4253 79.2916 67.6667 79.0893 67.8745C78.887 68.0767 78.6398 68.2451 78.3645 68.3574C78.1005 68.4641 77.8139 68.5259 77.5105 68.5259C77.2127 68.5259 76.9262 68.4641 76.6565 68.3574C76.3812 68.2451 76.134 68.0767 75.9317 67.8745C75.7351 67.6611 75.5665 67.4141 75.4542 67.1389ZM81.7693 55.7681H75.8418C75.943 55.5491 76.0329 55.3301 76.1115 55.1055C76.2688 54.6675 76.3812 54.2239 76.4486 53.7803H81.7693C81.8086 53.7073 81.848 53.6343 81.8929 53.5613C81.9772 53.4265 82.0783 53.303 82.1851 53.1963C82.393 52.9885 82.6346 52.8257 82.9099 52.7134C83.1739 52.6067 83.4605 52.5449 83.7639 52.5449C84.056 52.5449 84.3369 52.6011 84.601 52.7078L84.6179 52.7134C84.8932 52.8257 85.1348 52.9941 85.3426 53.1963C85.5449 53.3984 85.7135 53.6455 85.8258 53.9207C85.9326 54.1846 85.9944 54.4709 85.9944 54.7742C85.9944 55.0718 85.9326 55.3582 85.8258 55.6277C85.7135 55.9028 85.5449 56.1499 85.3426 56.3521C85.1404 56.5542 84.8932 56.7227 84.6179 56.835C84.3538 56.9417 84.0673 57.0034 83.7639 57.0034C83.4717 57.0034 83.1908 56.9473 82.9267 56.8406L82.9099 56.835C82.6346 56.7227 82.393 56.5542 82.1851 56.3521C82.0783 56.2454 81.9828 56.1274 81.8985 55.9983L81.8873 55.9814C81.848 55.9141 81.8086 55.8411 81.7693 55.7681ZM83.6571 50.3325H76.2014C76.0104 49.7036 75.7407 49.0916 75.4036 48.5076L75.3924 48.4907C75.3643 48.4402 75.3362 48.3953 75.3081 48.3447H82.6683V41.8591C82.6121 41.8254 82.5559 41.7917 82.4997 41.7524C82.3873 41.6738 82.2862 41.5896 82.1907 41.4941C81.9884 41.292 81.8199 41.0449 81.7075 40.7698C81.6008 40.5059 81.539 40.2195 81.539 39.9163C81.539 39.6187 81.6008 39.3267 81.7075 39.0627C81.8199 38.7876 81.9884 38.5461 82.1907 38.3384C82.393 38.1362 82.6402 37.9678 82.9155 37.8555C83.1795 37.7488 83.4661 37.687 83.7695 37.687C84.0673 37.687 84.3538 37.7488 84.6235 37.8555C84.8988 37.9678 85.146 38.1362 85.3483 38.3384C85.5505 38.5405 85.7191 38.7876 85.8314 39.0627C85.9382 39.3267 86 39.613 86 39.9163C86 40.2083 85.9438 40.489 85.8371 40.7529L85.8314 40.7698C85.7191 41.0449 85.5505 41.2864 85.3483 41.4941C85.2247 41.6177 85.0786 41.73 84.9269 41.8254C84.8426 41.876 84.7471 41.9265 84.6572 41.9658V49.333C84.6572 49.6082 84.5448 49.8552 84.365 50.0349C84.1796 50.2202 83.9324 50.3325 83.6571 50.3325ZM75.8643 45.5371H73.3248C73.3922 45.1665 73.4315 44.7959 73.4484 44.4253C73.4596 44.1277 73.4596 43.8357 73.4428 43.5493H74.8699V40.6182C74.7912 40.5789 74.7182 40.5396 74.6451 40.489C74.5103 40.4048 74.3867 40.3037 74.2687 40.1858C74.0664 39.9836 73.8979 39.7366 73.7855 39.4614C73.6787 39.1975 73.6169 38.9111 73.6169 38.6135C73.6169 38.3159 73.6787 38.0295 73.7855 37.76C73.8979 37.4961 74.0552 37.2546 74.2518 37.0525L74.2687 37.0356C74.4709 36.8335 74.7182 36.665 74.9935 36.5527C75.2575 36.446 75.5441 36.3843 75.8475 36.3843C76.1509 36.3843 76.4374 36.446 76.7015 36.5527C76.9655 36.665 77.2071 36.8223 77.4094 37.0244L77.4262 37.0356C77.6285 37.2378 77.7914 37.4736 77.9038 37.7432L77.9094 37.76C78.0162 38.0239 78.078 38.3103 78.078 38.6135C78.078 38.9111 78.0162 39.2031 77.9094 39.467C77.7971 39.731 77.6397 39.9724 77.4431 40.1746L77.4262 40.1914C77.3195 40.2981 77.2015 40.3936 77.0667 40.4834C76.9992 40.5283 76.9318 40.5676 76.8588 40.6013V44.5432C76.8588 44.8184 76.7464 45.0654 76.5666 45.2451C76.3868 45.4248 76.134 45.5371 75.8643 45.5371ZM36.4902 28.5398C36.7543 28.6465 37.0408 28.7083 37.3442 28.7083C37.6476 28.7083 37.9342 28.6465 38.1982 28.5398C38.4623 28.4275 38.7039 28.2703 38.9005 28.0681L38.9174 28.0569C39.0298 27.9446 39.1365 27.8154 39.2208 27.675C39.2657 27.6021 39.3107 27.5234 39.35 27.4392H42.8953V30.4995C43.5189 30.1682 44.1931 29.9268 44.8842 29.7864V26.4453C44.8842 26.1702 44.7718 25.9231 44.592 25.7434C44.4122 25.5637 44.165 25.4514 43.8897 25.4514H39.3163C39.2826 25.384 39.2433 25.3167 39.1983 25.2493C39.1197 25.1313 39.0298 25.019 38.9286 24.918L38.9118 24.9011C38.7095 24.699 38.4623 24.5305 38.187 24.4182C37.9229 24.3115 37.6364 24.2498 37.333 24.2498C37.0408 24.2498 36.7543 24.3059 36.4958 24.4126L36.479 24.4182C36.2037 24.5305 35.9621 24.699 35.7542 24.9011C35.552 25.1033 35.3834 25.3503 35.271 25.6255C35.1643 25.8894 35.1025 26.1758 35.1025 26.479C35.1025 26.7766 35.1643 27.063 35.271 27.3325C35.3834 27.6077 35.552 27.8547 35.7542 28.0569C35.9733 28.259 36.2149 28.4275 36.4902 28.5398ZM47.8732 22.2283V29.8987C48.5362 30.0896 49.1823 30.3928 49.7891 30.8308L49.8565 30.8813C49.8565 30.8645 49.8621 30.8477 49.8621 30.8308V22.2283C49.9352 22.189 50.0082 22.1497 50.0813 22.1047C50.2161 22.0205 50.3397 21.9194 50.4465 21.8127C50.6487 21.605 50.8173 21.3635 50.9296 21.0884C51.0364 20.8245 51.0982 20.5381 51.0982 20.2349C51.0982 19.9429 51.042 19.6621 50.9353 19.3982L50.9296 19.3813C50.8173 19.1062 50.6487 18.8647 50.4465 18.657C50.2442 18.4548 49.997 18.2864 49.7217 18.1741C49.4576 18.0674 49.1711 18.0056 48.8677 18.0056C48.5699 18.0056 48.2834 18.0674 48.0137 18.1741C47.7384 18.2864 47.4912 18.4548 47.2889 18.657C47.0866 18.8591 46.9181 19.1062 46.8057 19.3813C46.699 19.6453 46.6371 19.9316 46.6371 20.2349C46.6371 20.5269 46.6933 20.8076 46.8001 21.0715L46.8057 21.0884C46.9181 21.3635 47.0866 21.605 47.2889 21.8127C47.3956 21.9194 47.5136 22.0149 47.6429 22.0991L47.6541 22.1047C47.7271 22.1497 47.7945 22.189 47.8732 22.2283ZM53.3062 20.3416V31.5608C53.5759 31.2856 53.8625 31.0442 54.1546 30.8308C54.5198 30.5669 54.9019 30.3479 55.2952 30.1794V21.3298H61.7845C61.8182 21.386 61.8519 21.4421 61.8912 21.4983C61.9699 21.6106 62.0542 21.7117 62.1497 21.8071C62.352 22.0093 62.5992 22.1777 62.8745 22.29C63.1385 22.3967 63.4251 22.4585 63.7285 22.4585C64.0262 22.4585 64.3184 22.3967 64.5825 22.29C64.8578 22.1777 65.105 22.0093 65.3073 21.8071C65.5095 21.605 65.6781 21.3579 65.7904 21.0828C65.8972 20.8188 65.959 20.5325 65.959 20.2292C65.959 19.9316 65.8972 19.6453 65.7904 19.3757C65.6781 19.1006 65.5095 18.8535 65.3073 18.6514C65.0938 18.4492 64.8465 18.2808 64.5712 18.1685C64.3072 18.0618 64.0206 18 63.7229 18C63.4307 18 63.1498 18.0562 62.8857 18.1628L62.8689 18.1685C62.5935 18.2808 62.352 18.4492 62.1441 18.6514C62.0205 18.7749 61.9081 18.9209 61.8126 19.0725C61.762 19.1567 61.7114 19.2522 61.6721 19.342H54.3007C54.0254 19.342 53.7782 19.4543 53.5984 19.634C53.4186 19.8193 53.3062 20.0664 53.3062 20.3416ZM58.1044 28.1299V29.6685C58.3067 29.6797 58.5146 29.6965 58.7168 29.7302C59.1888 29.7976 59.6495 29.9155 60.0933 30.0784V29.1294H63.0262C63.0655 29.208 63.1048 29.281 63.1554 29.354C63.2397 29.4888 63.3408 29.6123 63.4588 29.7302C63.661 29.9324 63.9083 30.1008 64.1836 30.2131C64.4476 30.3198 64.7342 30.3816 65.032 30.3816C65.3297 30.3816 65.6163 30.3198 65.886 30.2131C66.15 30.1008 66.3916 29.9436 66.5939 29.7471L66.6107 29.7302C66.813 29.5281 66.9816 29.281 67.0939 29.0059C67.2007 28.7419 67.2625 28.4556 67.2625 28.1523C67.2625 27.8491 67.2007 27.5627 67.0939 27.2988C66.9816 27.0349 66.8242 26.7935 66.622 26.5913L66.6107 26.5745C66.4085 26.3723 66.1725 26.2095 65.9028 26.0972L65.886 26.0916C65.6219 25.9849 65.3353 25.9231 65.032 25.9231C64.7342 25.9231 64.442 25.9849 64.1779 26.0916C63.9139 26.2039 63.6723 26.3611 63.47 26.5576L63.4532 26.5745C63.3464 26.6812 63.2509 26.7991 63.161 26.9338C63.1161 27.0012 63.0767 27.0686 63.043 27.1416H59.0989C58.8236 27.1416 58.5764 27.2539 58.3966 27.4336C58.2168 27.6077 58.1044 27.8547 58.1044 28.1299ZM29.5458 37.7656C29.6526 38.0295 29.7144 38.3159 29.7144 38.6191C29.7144 38.9224 29.6526 39.2087 29.5458 39.4727C29.4335 39.7366 29.2761 39.978 29.0739 40.1746L29.0626 40.1914C28.9503 40.3037 28.821 40.4104 28.6806 40.4946C28.6075 40.5396 28.5289 40.5845 28.4446 40.6238V44.167H32.1247V44.3411C32.1247 44.4758 32.1303 44.6162 32.1359 44.7622C32.1472 44.8857 32.091 45.0093 31.9842 45.0879C31.501 45.4304 31.0684 45.7898 30.6751 46.1548H27.4614C27.1861 46.1548 26.9389 46.0425 26.7591 45.8628C26.5793 45.6831 26.4669 45.436 26.4669 45.1609V40.5901C26.3995 40.5564 26.3321 40.5171 26.2647 40.4722C26.1467 40.3936 26.0343 40.3037 25.9332 40.2026L25.9163 40.1858C25.714 39.9836 25.5455 39.7366 25.4331 39.4614C25.3264 39.1975 25.2646 38.9111 25.2646 38.6079C25.2646 38.3159 25.3208 38.0352 25.4275 37.7712L25.4331 37.7544C25.5455 37.4792 25.714 37.2378 25.9163 37.03C26.1186 36.8279 26.3658 36.6594 26.6411 36.5471C26.9052 36.4404 27.1917 36.3787 27.4951 36.3787C27.7929 36.3787 28.0794 36.4404 28.3491 36.5471C28.6244 36.6594 28.8716 36.8279 29.0739 37.03C29.2649 37.2434 29.4335 37.4905 29.5458 37.7656ZM23.2307 49.1365H28.512C28.4221 49.3386 28.3435 49.5464 28.2704 49.7485C28.1131 50.2034 28.0008 50.6582 27.9333 51.1187H23.2307C23.1914 51.1917 23.152 51.2646 23.1071 51.3376C23.0228 51.4724 22.9217 51.5959 22.8149 51.7026C22.607 51.9104 22.3655 52.0732 22.0901 52.1855C21.8261 52.2922 21.5395 52.354 21.2361 52.354C20.944 52.354 20.6631 52.2979 20.399 52.1912L20.3821 52.1855C20.1068 52.0732 19.8652 51.9048 19.6574 51.7026C19.4551 51.5005 19.2865 51.2534 19.1742 50.9783C19.0674 50.7144 19.0056 50.428 19.0056 50.1248C19.0056 49.8271 19.0674 49.5408 19.1742 49.2712C19.2865 48.9961 19.4551 48.749 19.6574 48.5469C19.8596 48.3447 20.1068 48.1763 20.3821 48.064C20.6462 47.9573 20.9327 47.8955 21.2361 47.8955C21.5283 47.8955 21.8092 47.9517 22.0733 48.0583L22.0901 48.064C22.3655 48.1763 22.607 48.3447 22.8149 48.5469C22.9217 48.6536 23.0172 48.7715 23.1015 48.9006L23.1127 48.9175C23.152 48.9905 23.1914 49.0635 23.2307 49.1365ZM21.3429 54.572H28.2143C28.4278 55.2515 28.7368 55.9084 29.1301 56.5317V56.5374L29.1413 56.5598H22.3317V63.0454C22.3879 63.0791 22.4441 63.1128 22.5003 63.1521C22.6127 63.2307 22.7138 63.3149 22.8093 63.4104C23.0116 63.6125 23.1801 63.8596 23.2925 64.1348C23.3992 64.3987 23.461 64.6851 23.461 64.9883C23.461 65.2859 23.3992 65.5779 23.2925 65.8418C23.1801 66.1169 23.0116 66.3584 22.8093 66.5662C22.607 66.7683 22.3598 66.9368 22.0845 67.0491C21.8205 67.1558 21.5339 67.2175 21.2305 67.2175C20.9327 67.2175 20.6462 67.1558 20.3765 67.0491C20.1012 66.9368 19.854 66.7683 19.6517 66.5662C19.4495 66.3472 19.2809 66.1001 19.1686 65.8306C19.0618 65.5667 19 65.2803 19 64.9771C19 64.6851 19.0562 64.4043 19.1629 64.1404L19.1686 64.1235C19.2809 63.8484 19.4495 63.6069 19.6517 63.3992C19.7753 63.2756 19.9214 63.1633 20.0731 63.0679C20.1574 63.0173 20.2529 62.9668 20.3428 62.9275V55.5603C20.3428 55.2852 20.4552 55.0381 20.635 54.8584C20.8204 54.6843 21.0676 54.572 21.3429 54.572ZM29.1357 59.3674H30.9898C30.928 59.738 30.8943 60.103 30.883 60.4624C30.8718 60.7656 30.8774 61.0632 30.8999 61.3552H30.1301V64.2864C30.2088 64.3257 30.2818 64.365 30.3549 64.4155C30.4897 64.4998 30.6133 64.6008 30.7313 64.7188C30.9336 64.9209 31.1021 65.168 31.2145 65.4431C31.3213 65.707 31.3831 65.9934 31.3831 66.2966C31.3831 66.5999 31.3213 66.8806 31.2145 67.1501C31.1021 67.4141 30.9448 67.6555 30.7482 67.8577L30.7313 67.8745C30.5291 68.0767 30.2818 68.2451 30.0065 68.3574C29.7425 68.4641 29.4559 68.5259 29.1525 68.5259C28.8491 68.5259 28.5626 68.4641 28.2985 68.3574C28.0345 68.2451 27.7929 68.0879 27.5906 67.8857L27.5738 67.8745C27.3715 67.6724 27.2086 67.4365 27.0962 67.167L27.0906 67.1501C26.9838 66.8862 26.922 66.5999 26.922 66.2966C26.922 65.999 26.9838 65.707 27.0906 65.4431C27.2029 65.1792 27.3603 64.9377 27.5569 64.7356L27.5738 64.7188C27.6805 64.6121 27.7985 64.5166 27.9333 64.4268C28.0008 64.3818 28.0682 64.3425 28.1412 64.3088V60.3669C28.1412 60.0918 28.2536 59.8447 28.4334 59.665C28.6132 59.4741 28.8604 59.3674 29.1357 59.3674ZM56.0986 82.7717V74.916C55.3963 74.697 54.7333 74.3433 54.1265 73.8435L54.1153 73.8323V82.7773C54.0423 82.8167 53.9692 82.856 53.8962 82.9009C53.7613 82.9851 53.6377 83.0862 53.531 83.1929C53.3287 83.4006 53.1602 83.6421 53.0478 83.9172C52.941 84.1812 52.8792 84.4675 52.8792 84.7708C52.8792 85.0627 52.9354 85.3435 53.0422 85.6074L53.0478 85.6243C53.1602 85.8994 53.3287 86.1409 53.531 86.3486C53.7332 86.5508 53.9805 86.7192 54.2558 86.8315C54.5198 86.9382 54.8064 87 55.1098 87C55.4075 87 55.6941 86.9382 55.9638 86.8315C56.2391 86.7192 56.4863 86.5508 56.6886 86.3486C56.8908 86.1465 57.0594 85.8994 57.1717 85.6243C57.2785 85.3604 57.3403 85.074 57.3403 84.7708C57.3403 84.4788 57.2841 84.198 57.1774 83.9341L57.1717 83.9172C57.0594 83.6421 56.8908 83.4006 56.6886 83.1929C56.5818 83.0862 56.4638 82.9907 56.3346 82.9065L56.3177 82.8953C56.2447 82.8503 56.1717 82.811 56.0986 82.7717ZM50.66 84.6584V73.3381C50.424 73.5796 50.1768 73.793 49.9183 73.9895C49.5194 74.2927 49.1036 74.5342 48.671 74.7251V83.6758H42.1817C42.148 83.6196 42.1143 83.5635 42.075 83.5073C41.9963 83.395 41.912 83.2939 41.8165 83.1985C41.6143 82.9963 41.367 82.8279 41.0917 82.7156C40.8277 82.6089 40.5411 82.5471 40.2377 82.5471C39.94 82.5471 39.6478 82.6089 39.3837 82.7156C39.1084 82.8279 38.8668 82.9963 38.659 83.1985C38.4567 83.4006 38.2881 83.6477 38.1758 83.9229C38.069 84.1868 38.0072 84.4731 38.0072 84.7764C38.0072 85.074 38.069 85.3604 38.1758 85.6299C38.2881 85.905 38.4567 86.1521 38.659 86.3542C38.8612 86.5564 39.1084 86.7249 39.3837 86.8372C39.6478 86.9438 39.9343 87.0056 40.2377 87.0056C40.5299 87.0056 40.8108 86.9495 41.0749 86.8428L41.0917 86.8372C41.367 86.7249 41.6086 86.5564 41.8165 86.3542C41.9401 86.2307 42.0525 86.0847 42.148 85.9331C42.1986 85.8489 42.2491 85.7534 42.2885 85.6636H49.6599C49.9352 85.6636 50.1824 85.5513 50.3622 85.3716C50.5476 85.1807 50.66 84.9336 50.66 84.6584ZM45.8618 76.8701V75.2361C45.4236 75.2136 44.9853 75.1462 44.5583 75.0396C44.328 74.9834 44.0976 74.9104 43.8729 74.8318V75.8818H40.94C40.9007 75.8032 40.8614 75.7302 40.8108 75.6572C40.7265 75.5225 40.6254 75.3989 40.5074 75.281C40.3052 75.0789 40.0579 74.9104 39.7826 74.7981C39.5186 74.6914 39.232 74.6296 38.9343 74.6296C38.6365 74.6296 38.3499 74.6914 38.0803 74.7981C37.8162 74.9104 37.5746 75.0676 37.3723 75.2642L37.3555 75.2754C37.1532 75.4775 36.9847 75.7246 36.8723 75.9998C36.7655 76.2637 36.7037 76.55 36.7037 76.8533C36.7037 77.1565 36.7655 77.4429 36.8723 77.7068C36.9847 77.9707 37.142 78.2122 37.3442 78.4143L37.3555 78.4312C37.5577 78.6333 37.7937 78.7961 38.0634 78.9084L38.0803 78.9141C38.3443 79.0208 38.6309 79.0825 38.9343 79.0825C39.232 79.0825 39.5186 79.0208 39.7883 78.9141C40.0523 78.8018 40.2939 78.6445 40.4962 78.448L40.513 78.4312C40.6198 78.3245 40.7153 78.2065 40.8052 78.0718C40.8501 78.0044 40.8895 77.937 40.9232 77.864H44.8673C45.1426 77.864 45.3899 77.7517 45.5696 77.572C45.7494 77.3923 45.8618 77.1453 45.8618 76.8701Z" fill="white"/>
</g>
<defs>
<clipPath id="clip0_850_4336">
<rect width="67" height="69" fill="white" transform="translate(19 18)"/>
</clipPath>
</defs>
</svg>
