<svg width="104" height="105" viewBox="0 0 104 105" fill="none" xmlns="http://www.w3.org/2000/svg">
<circle cx="52" cy="52.5" r="52" fill="#F5454E"/>
<path d="M35.6778 79.6106C32.5469 79.6106 30 77.0634 30 73.9325V31.1779C30 28.0469 32.5469 25.5 35.6778 25.5H69.3221C72.4527 25.5 75 28.0473 75 31.1782V65.3339C74.9991 65.7531 74.8577 66.1598 74.5983 66.4891L64.8083 78.8994C64.6343 79.1215 64.412 79.3011 64.1581 79.4244C63.9043 79.5476 63.6257 79.6113 63.3435 79.6106H35.6778ZM35.6774 29.2329C35.1622 29.2342 34.6685 29.4395 34.3042 29.8038C33.9399 30.1681 33.7346 30.6619 33.7332 31.1771V73.9325C33.7344 74.4478 33.9396 74.9416 34.304 75.306C34.6683 75.6704 35.1621 75.8757 35.6774 75.877H60.2621V68.2584C60.2621 65.1278 62.8091 62.5805 65.94 62.5805H71.2667V31.1779C71.2654 30.6626 71.0601 30.1687 70.6957 29.8043C70.3313 29.4399 69.8375 29.2346 69.3222 29.2332H35.6774L35.6774 29.2329ZM65.9396 66.3142C65.4245 66.3154 64.9309 66.5206 64.5666 66.8847C64.2024 67.2489 63.9971 67.7425 63.9958 68.2576V73.9028L69.9817 66.3142H65.9396Z" fill="white"/>
<path d="M45.9808 51.9841L51.7764 46.1884C52.3256 45.6392 53.1553 45.6392 53.7044 46.1884L59.5001 51.9841C60.0493 52.5333 60.0493 53.3629 59.5001 53.9121C58.9509 54.4613 58.1213 54.4613 57.5721 53.9121L52.7463 49.0862L47.9204 53.9121C47.3713 54.4613 46.5416 54.4613 45.9924 53.9121C45.4316 53.3629 45.4316 52.5333 45.9808 51.9841Z" fill="white"/>
<path d="M51.7765 46.0481C52.0569 45.9079 52.3257 45.7677 52.7463 45.7677C53.5759 45.7677 54.1251 46.3169 54.1251 47.1465V62.033C54.1251 62.8626 53.5759 63.4118 52.7463 63.4118C51.9167 63.4118 51.3675 62.8626 51.3675 62.033V47.1582C51.3558 46.7375 51.496 46.3286 51.7765 46.0481Z" fill="white"/>
<path d="M59.4884 58.7379C58.6588 58.7379 58.1096 58.1887 58.1096 57.3591C58.1096 56.5294 58.6588 55.9802 59.4884 55.9802C61.8371 55.9802 63.9053 54.0522 63.9053 51.5634C63.9053 49.4951 62.3863 47.7074 60.3181 47.2867C59.7689 47.1465 59.3482 46.7375 59.2197 46.1883C58.3901 43.2905 55.7726 41.3625 52.8748 41.3625C49.8367 41.3625 47.2193 43.2905 46.5299 46.3285C46.3897 46.7375 45.9807 47.1582 45.4315 47.2984C43.3633 47.7074 41.8443 49.5068 41.8443 51.5751C41.8443 53.9237 43.7723 55.9919 46.2612 55.9919C47.0908 55.9919 47.64 56.5411 47.64 57.3707C47.64 58.2004 47.0908 58.7496 46.2612 58.7496C42.4052 58.7496 39.0867 55.583 39.0867 51.5751C39.0867 48.4085 41.1549 45.6508 44.193 44.8212C45.2913 41.082 48.8786 38.6049 52.8748 38.6049C56.871 38.6049 60.3181 41.082 61.5567 44.8095C64.5947 45.7794 66.6629 48.3968 66.6629 51.5634C66.6629 55.5596 63.3561 58.7379 59.4884 58.7379Z" fill="white"/>
</svg>
