<svg width="104" height="104" viewBox="0 0 104 104" fill="none" xmlns="http://www.w3.org/2000/svg">
<circle cx="52" cy="52" r="52" fill="#F5454E"/>
<path d="M68.1697 43.2041H63.8958L58.8817 56.5481C54.304 55.4812 49.9903 53.4887 46.2033 50.6921C50.6259 45.8293 53.5712 39.7956 54.6914 33.3041H60.9112C61.5445 33.3041 62.1518 33.0512 62.5996 32.6011C63.0473 32.151 63.2989 31.5406 63.2989 30.904C63.2989 30.2675 63.0473 29.6571 62.5996 29.207C62.1518 28.7569 61.5445 28.504 60.9112 28.504H45.0931V23.2C45.0931 22.5635 44.8415 21.9531 44.3937 21.503C43.946 21.0529 43.3387 20.8 42.7054 20.8C42.0722 20.8 41.4649 21.0529 41.0171 21.503C40.5693 21.9531 40.3178 22.5635 40.3178 23.2V28.504H24.4876C23.8544 28.504 23.2471 28.7569 22.7993 29.207C22.3515 29.6571 22.1 30.2675 22.1 30.904C22.1 31.5406 22.3515 32.151 22.7993 32.6011C23.2471 33.0512 23.8544 33.3041 24.4876 33.3041H30.7194C31.8343 39.795 34.7757 45.829 39.1956 50.6921C35.1231 53.6897 30.4574 55.7727 25.5143 56.8001C24.8811 56.8685 24.3008 57.187 23.9012 57.6854C23.5015 58.1839 23.3153 58.8215 23.3833 59.4581C23.4514 60.0946 23.7683 60.6778 24.2642 61.0795C24.7601 61.4812 25.3944 61.6685 26.0277 61.6001C26.2047 61.6045 26.3814 61.5843 26.5529 61.5401C32.4416 60.329 37.9705 57.7617 42.7054 54.0401C46.9772 57.4075 51.9138 59.8211 57.1865 61.1201L48.8655 83.2001H55.0376L58.261 73.8881H73.7091L76.9682 83.2001H83.2L68.1697 43.2041ZM49.9042 33.3041C48.9121 38.6364 46.4272 43.5736 42.7412 47.5361C39.0525 43.5755 36.5672 38.6375 35.5783 33.3041H49.9042ZM60.2666 68.2841L66.0328 51.6881L71.7512 68.2841H60.2666Z" fill="white"/>
</svg>
